<svg width="104" height="104" viewBox="0 0 104 104" fill="none" xmlns="http://www.w3.org/2000/svg">
<g clip-path="url(#clip0_253_3776)">
<rect width="104" height="104" rx="24" fill="white"/>
<path d="M89.1122 35H70.1768C68.4971 35 67.1445 33.7017 67.1445 32.0892V13.9108C67.1445 12.2983 68.4971 11 70.1768 11H89.1122C90.792 11 92.1445 12.2983 92.1445 13.9108V32.087C92.1033 33.7017 90.7508 35 89.1122 35Z" fill="#EAEBEA"/>
<path d="M78.7315 29.4061L78.0181 27.4608H73.0974L72.384 29.4061H69.6057L74.0501 17.9385H77.1053L81.5098 29.4061H78.7315ZM75.5965 20.3977L73.8108 25.3184H77.3822L75.5965 20.3977Z" fill="#005F86"/>
<path d="M86.548 24.2859V27.7776H85.0392V24.2859H81.9441V22.9367H85.0392V19.6045H86.548V22.9367H89.6032V24.2859H86.548Z" fill="#005F86"/>
<path d="M104.145 67H0.144531V104H104.145V67Z" fill="#005F86"/>
<path d="M48.2733 23.3113L45.6458 27.061C44.332 28.8829 44.7347 32.2291 46.5569 33.5455L51.5108 37.1934C52.3202 37.8007 52.4219 38.408 52.0152 39.1171L52.7229 39.6225L55.2487 36.0766C56.7658 33.949 56.6641 31.0104 54.3376 29.2904L49.282 25.6426C48.6759 25.2391 48.5742 24.6277 48.9769 23.9186L48.2733 23.3113ZM52.6212 7L48.4766 12.7754C46.5569 15.5102 47.2646 20.1729 49.892 22.0967L56.7658 27.1629C58.1812 28.1777 58.3846 30.8107 57.3718 32.1272L57.9779 32.5307L62.7285 25.8423C64.8516 22.8018 64.7499 18.4448 61.4147 16.0156L54.0366 10.6478C53.0239 9.93864 52.5195 8.62216 53.3289 7.40758L52.6212 7ZM41.6029 43.2704H47.1629L48.1756 46.6125H57.2742L58.287 43.2704H63.847L63.1393 40.8371H42.3146L41.6029 43.2704ZM44.2303 54.5154C45.2431 53.9081 45.8491 53.0971 45.8491 51.9844C45.8491 49.653 43.9294 48.7441 41.9079 48.7441H36.1445V60.9022H41.8062C44.2344 60.9022 46.7602 59.8873 46.3576 57.0506C46.1501 55.5303 45.4424 55.1227 44.2303 54.5154ZM38.6703 51.0714H41.7045C43.5226 51.0714 43.6243 53.7044 41.8062 53.7044H38.6703V51.0714ZM42.0055 58.6686H38.6703V55.9338H42.0055C44.4337 55.8319 44.332 58.6686 42.0055 58.6686ZM55.5537 54.5154C56.5665 53.9081 57.1725 53.0971 57.1725 51.9844C57.1725 49.653 55.2528 48.7441 53.2313 48.7441H47.4679V60.9022H53.1296C55.5578 60.9022 58.0836 59.8873 57.681 57.0506C57.4735 55.5303 56.8675 55.1227 55.5537 54.5154ZM50.0954 51.0714H53.0279C54.846 51.0714 54.9477 53.7044 53.1296 53.7044H50.0954V51.0714ZM53.4306 58.6686H50.0954V55.9338H53.4306C55.8588 55.8319 55.6554 58.6686 53.4306 58.6686ZM69.102 57.1484C68.8986 55.5262 68.1909 55.1227 66.9788 54.6173C67.9916 54.01 68.5976 53.199 68.5976 52.0863C68.5976 49.7549 66.6778 48.846 64.6564 48.846H58.8889V61H64.5506C66.9788 61 69.5046 59.8832 69.102 57.1484ZM61.5205 51.0714H64.453C66.2711 51.0714 66.3728 53.7044 64.5547 53.7044H61.4188L61.5205 51.0714ZM64.754 58.6686H61.4188V55.9338H64.754C67.1822 55.8319 67.0805 58.6686 64.754 58.6686Z" fill="#005F86"/>
<path d="M21.4503 83.1402L21.006 81.7983H17.6309L17.0983 83.1402H15.1445L18.255 75.0921H20.3885L23.4989 83.1402C23.4041 83.1402 21.4503 83.1402 21.4503 83.1402ZM19.3201 76.7892L18.0753 80.2755H20.5616L19.3201 76.7892ZM23.8485 79.1145C23.8485 76.6116 25.7141 75 28.1123 75C29.5335 75 30.7783 75.717 31.4873 76.9668L30.0661 77.6838C29.7099 76.9668 29.0009 76.5228 28.2005 76.5228C26.7792 76.5228 25.7141 77.595 25.7141 79.1145C25.7141 80.634 26.7792 81.7062 28.2005 81.7062C29.0009 81.7062 29.7099 81.2589 30.0661 80.5452L31.4873 81.2622C30.9548 82.2456 29.8896 83.229 28.1123 83.229C25.7141 83.229 23.8485 81.6174 23.8485 79.1145ZM32.1996 79.1145C32.1996 76.6116 34.0652 75 36.4634 75C37.8846 75 39.1294 75.717 39.8384 76.9668L38.4172 77.6838C38.061 76.9668 37.352 76.5228 36.5516 76.5228C35.1303 76.5228 34.0652 77.595 34.0652 79.1145C34.0652 80.634 35.1303 81.7062 36.5516 81.7062C37.352 81.7062 38.061 81.2589 38.4172 80.5452L39.8384 81.2622C39.3059 82.2456 38.2407 83.229 36.4634 83.229C33.977 83.229 32.1996 81.6174 32.1996 79.1145ZM45.347 83.1402L43.7493 80.2788H42.5045V83.1402H40.8153V75.0921H44.5465C46.2357 75.0921 47.2126 76.1643 47.2126 77.6838C47.2126 79.1145 46.3239 79.8315 45.4352 80.0979L47.2126 83.1369L45.347 83.1402ZM45.5234 77.6838C45.5234 76.9668 44.9909 76.6116 44.3701 76.6116H42.5927V78.7593H44.3701C44.9909 78.756 45.5234 78.4008 45.5234 77.6838ZM48.6339 83.1402V75.0921H54.3189V76.6116H50.4113V78.312H54.2307V79.8315H50.4113V81.6207H54.3189V83.1402H48.6339ZM55.6519 83.1402V75.0921H58.7624C61.2487 75.0921 63.0261 76.7004 63.0261 79.1178C63.0261 81.5352 61.2487 83.1435 58.7624 83.1435H55.6519V83.1402ZM61.3369 79.1145C61.3369 77.6838 60.4483 76.6116 58.8506 76.6116H57.4293V81.6207H58.8506C60.36 81.6174 61.2487 80.4564 61.3369 79.1145ZM64.3592 83.1402V75.0921H66.0483V83.1402H64.3592ZM69.5116 83.1402V76.6116H67.2017V75.0921H73.5989V76.6116H71.289V83.1402H69.5116ZM74.7523 83.1402V75.0921H80.4373V76.6116H76.5297V78.312H80.3491V79.8315H76.5297V81.6207H80.4373V83.1402H74.7523ZM81.7703 83.1402V75.0921H84.8808C87.3671 75.0921 89.1445 76.7004 89.1445 79.1178C89.1445 81.5352 87.3671 83.1435 84.8808 83.1435H81.7703V83.1402ZM87.3671 79.1145C87.3671 77.6838 86.4785 76.6116 84.8808 76.6116H83.4595V81.6207H84.8808C86.4785 81.6174 87.3671 80.4564 87.3671 79.1145ZM25.0332 95.9112V87.8631H29.2088C30.7182 87.8631 31.5187 88.8465 31.5187 89.9187C31.5187 90.9021 30.8979 91.6191 30.1857 91.7967C31.0744 91.8855 31.6952 92.7801 31.6952 93.7635C31.6952 94.9245 30.8947 95.9112 29.3852 95.9112C29.297 95.9112 25.0332 95.9112 25.0332 95.9112ZM29.7413 90.1884C29.7413 89.7411 29.3852 89.2938 28.8526 89.2938H26.6309V91.083H28.7644C29.3852 91.0797 29.7413 90.7245 29.7413 90.1884ZM29.9178 93.4971C29.9178 92.961 29.5616 92.6025 28.8526 92.6025H26.6309V94.4805H28.8526C29.4734 94.3884 29.9178 94.0332 29.9178 93.4971ZM33.0282 92.6913V87.8631H34.8056V92.6025C34.8056 93.6747 35.4264 94.4805 36.6712 94.4805C37.916 94.4805 38.5368 93.6747 38.5368 92.6025V87.8631H40.3142V92.6913C40.3142 94.6581 39.1608 96 36.7594 96C34.1815 96 33.0282 94.6581 33.0282 92.6913ZM41.2878 94.7469L42.1765 93.405C42.7973 94.122 43.7742 94.4772 44.7511 94.4772C45.6398 94.4772 46.1723 94.0299 46.1723 93.5826C46.1723 92.9577 45.4601 92.8656 44.5747 92.5992C43.2416 92.3295 41.6439 91.9743 41.6439 90.0963C41.6439 88.7544 42.7973 87.6822 44.6629 87.6822C45.9077 87.6822 46.9728 88.0407 47.7733 88.7544L46.7964 90.0075C46.1756 89.4714 45.3751 89.1129 44.4864 89.1129C43.7742 89.1129 43.3331 89.4714 43.3331 89.9187C43.3331 90.4548 44.0454 90.6357 44.9308 90.8133C46.2638 91.083 47.9497 91.5303 47.9497 93.3162C47.9497 94.7469 46.8846 95.9079 44.7511 95.9079C43.1534 96 42.0001 95.4639 41.2878 94.7469ZM49.1063 95.9112V87.8631H50.7955V95.9112H49.1063ZM57.99 95.9112L54.1706 90.6357V95.8224H52.4814V87.7743H54.2588L57.99 92.7834V87.7743H59.6792V95.8224H57.99V95.9112ZM61.2769 95.9112V87.8631H66.9619V89.3826H62.9628V91.083H66.7822V92.6025H62.9628V94.3917H66.8704V95.9112H61.2769ZM67.7624 94.7469L68.651 93.405C69.2718 94.122 70.2487 94.4772 71.2256 94.4772C72.2025 94.4772 72.6469 94.0299 72.6469 93.5826C72.6469 92.9577 71.9346 92.8656 71.0492 92.5992C69.7162 92.3295 68.1185 91.9743 68.1185 90.0963C68.1185 88.7544 69.2718 87.6822 71.1374 87.6822C72.3822 87.6822 73.4474 88.0407 74.2478 88.7544L73.3592 90.0075C72.7384 89.4714 71.9379 89.1129 71.0492 89.1129C70.3369 89.1129 69.8959 89.4714 69.8959 89.9187C69.8959 90.4548 70.6081 90.6357 71.4936 90.8133C72.8266 91.083 74.5125 91.5303 74.5125 93.3162C74.5125 94.7469 73.4474 95.9079 71.3139 95.9079C69.628 96 68.4713 95.4639 67.7624 94.7469ZM75.0451 94.7469L75.9338 93.405C76.5545 94.122 77.5314 94.4772 78.5083 94.4772C79.4853 94.4772 79.9296 94.0299 79.9296 93.5826C79.9296 92.9577 79.2173 92.8656 78.3319 92.5992C76.9989 92.3295 75.4012 91.9743 75.4012 90.0963C75.4012 88.7544 76.5545 87.6822 78.4201 87.6822C79.665 87.6822 80.7301 88.0407 81.5305 88.7544L80.5536 90.0075C79.9329 89.4714 79.1324 89.1129 78.2437 89.1129C77.5314 89.1129 77.0904 89.4714 77.0904 89.9187C77.0904 90.4548 77.8026 90.6357 78.688 90.8133C80.0211 91.083 81.707 91.5303 81.707 93.3162C81.707 94.7469 80.6419 95.9079 78.5083 95.9079C76.8224 96 75.7573 95.4639 75.0451 94.7469Z" fill="white"/>
</g>
<rect x="0.5" y="0.5" width="103" height="103" rx="23.5" stroke="#024F6F"/>
<defs>
<clipPath id="clip0_253_3776">
<rect width="104" height="104" rx="24" fill="white"/>
</clipPath>
</defs>
</svg>
