<svg width="104" height="104" viewBox="0 0 104 104" fill="none" xmlns="http://www.w3.org/2000/svg">
<g clip-path="url(#clip0_253_3807)">
<path d="M103.831 0H0.0245361V104H103.831V0Z" fill="#00538E"/>
<path d="M61 62.1954C61 68.5306 56.3684 71.1754 51.0269 70.991C49.1308 70.9246 47.2837 70.4104 45.272 69.7044L45.7285 65.1435C47.4308 65.896 49.6386 66.7123 51.4857 66.6822C53.9002 66.6421 56.3123 65.4382 56.3123 62.4361C56.3123 60.1237 54.589 58.9863 52.9229 58.0809C49.2382 56.0733 45 54.6788 45 49.0696C45 43.7664 48.9264 41 53.7939 41C55.5628 41 57.676 41.3311 59.7963 42.1374L59.16 46.6305C56.8517 45.6574 55.8418 45.3126 53.9457 45.3126C51.8465 45.3126 49.6877 46.1051 49.6877 48.7072C49.6877 50.7399 51.6305 51.7958 53.0747 52.5708C56.9895 54.6675 61 56.3905 61 62.1954Z" fill="white"/>
<path d="M38 69.6377C36.2014 70.2624 33.4472 71 29.0527 71C20.0349 71 14 65.0856 14 55.8783C14 46.9446 20.407 41 29.0935 41C33.2185 41 35.0579 41.6209 37.6638 42.5341L37.2719 47.5379C34.8738 45.9473 32.8316 45.3113 29.2937 45.3113C23.082 45.3113 18.9347 49.8736 18.9644 55.9987C18.9941 62.5906 23.5073 66.6887 29.0935 66.6887C30.7586 66.6887 32.174 66.5657 33.1913 66.2935V58.7835H27.819V54.5512H38V69.6377Z" fill="white"/>
<path d="M78.0025 41L85 56H80.1245L78.0025 51.0158L75.8755 56H71L78.0025 41Z" fill="white"/>
<path d="M84.4788 56L91 70H85.8748L81 59.1289L84.4788 56Z" fill="white"/>
<path d="M70.4637 56L73.9098 59.128L71.3634 64.7681L77.48 61.6595L81 64.2882L68.9586 70H64L70.4637 56Z" fill="white"/>
<path d="M17.8125 84.613C16.7674 84.613 15.9009 84.2671 15.2129 83.5754C14.5249 82.8836 14.1803 82.0296 14.1803 81.0107C14.1803 79.9919 14.5237 79.1366 15.2129 78.4448C15.9009 77.7531 16.7674 77.4072 17.8125 77.4072C18.4406 77.4072 19.0212 77.5558 19.5543 77.8542C20.0862 78.1514 20.502 78.5559 20.7992 79.0654L19.8066 79.641C19.6218 79.2976 19.3521 79.0242 18.9974 78.8219C18.6441 78.6196 18.2483 78.5197 17.8113 78.5197C17.0696 78.5197 16.4703 78.7545 16.0095 79.224C15.55 79.6934 15.3203 80.289 15.3203 81.0107C15.3203 81.7324 15.55 82.3268 16.0095 82.7975C16.469 83.267 17.0696 83.5017 17.8113 83.5017C18.2483 83.5017 18.6453 83.4006 19.0024 83.1995C19.3595 82.9973 19.628 82.7251 19.8066 82.3805L20.7992 82.9461C20.5083 83.4555 20.0962 83.8613 19.5631 84.1622C19.0312 84.4631 18.4468 84.613 17.8125 84.613Z" fill="white"/>
<path d="M28.7928 83.5666C28.0949 84.2646 27.2433 84.613 26.2369 84.613C25.2318 84.613 24.379 84.2646 23.681 83.5666C22.983 82.8687 22.6334 82.0171 22.6334 81.0107C22.6334 80.0056 22.9818 79.1528 23.681 78.4548C24.379 77.7568 25.2305 77.4072 26.2369 77.4072C27.2421 77.4072 28.0949 77.7568 28.7928 78.4548C29.4908 79.1528 29.8392 80.0043 29.8392 81.0107C29.8392 82.0159 29.4908 82.8687 28.7928 83.5666ZM24.4864 82.7925C24.9596 83.2657 25.5427 83.5017 26.2382 83.5017C26.9336 83.5017 27.5168 83.2657 27.99 82.7925C28.4632 82.3193 28.6992 81.7262 28.6992 81.0107C28.6992 80.2953 28.462 79.7022 27.99 79.2289C27.5168 78.7557 26.9336 78.5197 26.2382 78.5197C25.5427 78.5197 24.9596 78.7557 24.4864 79.2289C24.0131 79.7022 23.7772 80.2953 23.7772 81.0107C23.7772 81.7262 24.0131 82.3193 24.4864 82.7925Z" fill="white"/>
<path d="M36.3394 77.5371H37.4806V84.4844H36.5879L33.3127 79.7709V84.4844H32.1715V77.5371H33.0643L36.3394 82.2506V77.5371Z" fill="white"/>
<path d="M44.6752 77.5371V78.6284H42.7198V84.4831H41.5786V78.6284H39.6133V77.5371H44.6752Z" fill="white"/>
<path d="M50.7686 84.4844L49.3002 81.9535H47.9504V84.4844H46.8092V77.5371H49.5874C50.2092 77.5371 50.7373 77.7544 51.1706 78.1876C51.6039 78.6209 51.8211 79.1491 51.8211 79.7709C51.8211 80.2141 51.6938 80.6199 51.4391 80.987C51.1843 81.3541 50.8522 81.6201 50.4414 81.7861L52.0197 84.4856H50.7686V84.4844ZM47.9504 78.6084V80.9308H49.5874C49.892 80.9308 50.1492 80.8185 50.3615 80.5937C50.5738 80.369 50.6787 80.0943 50.6787 79.7696C50.6787 79.4462 50.5725 79.1715 50.3615 78.9455C50.1492 78.7208 49.892 78.6084 49.5874 78.6084H47.9504Z" fill="white"/>
<path d="M58.7084 84.4844L58.2227 83.0847H55.2648L54.7791 84.4844H53.5392L56.0601 77.5371H57.4299L59.9408 84.4844H58.7084ZM55.6418 82.0134H57.8444L56.7431 78.8769L55.6418 82.0134Z" fill="white"/>
<path d="M65 84.613C63.9549 84.613 63.0884 84.2671 62.4004 83.5754C61.7124 82.8836 61.3678 82.0296 61.3678 81.0107C61.3678 79.9919 61.7112 79.1366 62.4004 78.4448C63.0884 77.7531 63.9549 77.4072 65 77.4072C65.6281 77.4072 66.2087 77.5558 66.7418 77.8542C67.2737 78.1514 67.6895 78.5559 67.9867 79.0654L66.9941 79.641C66.8093 79.2976 66.5396 79.0242 66.185 78.8219C65.8303 78.6196 65.4358 78.5197 64.9988 78.5197C64.2583 78.5197 63.6578 78.7545 63.197 79.224C62.7375 79.6934 62.5078 80.289 62.5078 81.0107C62.5078 81.7324 62.7375 82.3268 63.197 82.7975C63.6565 83.267 64.2571 83.5017 64.9988 83.5017C65.4358 83.5017 65.8328 83.4006 66.1899 83.1995C66.5471 82.9973 66.8155 82.7251 66.9941 82.3805L67.9867 82.9461C67.6958 83.4555 67.2837 83.8613 66.7518 84.1622C66.2187 84.4631 65.6343 84.613 65 84.613Z" fill="white"/>
<path d="M74.6855 77.5371V78.6284H72.7302V84.4831H71.589V78.6284H69.6237V77.5371H74.6855Z" fill="white"/>
<path d="M82.2321 83.5666C81.5342 84.2646 80.6826 84.613 79.6762 84.613C78.6711 84.613 77.8183 84.2646 77.1203 83.5666C76.4223 82.8687 76.074 82.0171 76.074 81.0107C76.074 80.0056 76.4223 79.1528 77.1203 78.4548C77.8183 77.7568 78.6698 77.4072 79.6762 77.4072C80.6814 77.4072 81.5342 77.7568 82.2321 78.4548C82.9301 79.1528 83.2785 80.0043 83.2785 81.0107C83.2797 82.0159 82.9301 82.8687 82.2321 83.5666ZM77.9257 82.7925C78.3989 83.2657 78.982 83.5017 79.6775 83.5017C80.373 83.5017 80.9561 83.2657 81.4293 82.7925C81.9025 82.3193 82.1385 81.7262 82.1385 81.0107C82.1385 80.2953 81.9013 79.7022 81.4293 79.2289C80.9561 78.7557 80.373 78.5197 79.6775 78.5197C78.982 78.5197 78.3989 78.7557 77.9257 79.2289C77.4524 79.7022 77.2165 80.2953 77.2165 81.0107C77.2165 81.7262 77.4524 82.3193 77.9257 82.7925Z" fill="white"/>
<path d="M89.5715 84.4844L88.1032 81.9535H86.7534V84.4844H85.6122V77.5371H88.3903C89.0122 77.5371 89.5403 77.7544 89.9736 78.1876C90.4069 78.6209 90.6241 79.1491 90.6241 79.7709C90.6241 80.2141 90.4968 80.6199 90.242 80.987C89.9873 81.3541 89.6552 81.6201 89.2444 81.7861L90.8226 84.4856H89.5715V84.4844ZM86.7522 78.6084V80.9308H88.3903C88.695 80.9308 88.9522 80.8185 89.1645 80.5937C89.3768 80.369 89.4816 80.0943 89.4816 79.7696C89.4816 79.4462 89.3755 79.1715 89.1645 78.9455C88.9522 78.7208 88.695 78.6084 88.3903 78.6084H86.7522Z" fill="white"/>
</g>
<rect x="0.5" y="0.5" width="102.856" height="103" rx="23.5" stroke="#033B64"/>
<defs>
<clipPath id="clip0_253_3807">
<rect width="103.856" height="104" rx="24" fill="white"/>
</clipPath>
</defs>
</svg>
