<svg width="105" height="104" viewBox="0 0 105 104" fill="none" xmlns="http://www.w3.org/2000/svg">
<g clip-path="url(#clip0_253_3825)">
<path d="M104.856 0H0.855591V104H104.856V0Z" fill="#518AC6"/>
<path d="M23.5141 86.1618C23.903 85.9285 24.3698 85.8247 24.8366 85.8247C25.1996 85.8247 25.5627 85.9025 25.8739 86.0581C26.211 86.2137 26.4962 86.4471 26.7296 86.7064L27.5853 85.8507C27.2482 85.4358 26.8333 85.1246 26.3666 84.9171C25.7961 84.6837 25.1996 84.58 24.5773 84.6059C23.9549 84.6319 23.3585 84.8134 22.8399 85.0986C22.2694 85.4358 21.8026 85.9025 21.4655 86.499C21.1284 87.1213 20.9728 87.7955 20.9728 88.4957C20.9728 89.1958 21.1284 89.8701 21.4655 90.4924C21.7767 91.0629 22.2434 91.5556 22.8139 91.8927C23.4103 92.2298 24.0846 92.4114 24.7588 92.3854C25.3034 92.3854 25.8479 92.2817 26.3666 92.0742C26.8333 91.8668 27.2742 91.5297 27.5853 91.1407L26.7296 90.285C26.4962 90.5702 26.211 90.8036 25.8739 90.9592C25.5367 91.1148 25.1737 91.1926 24.8107 91.1926C24.3439 91.1926 23.903 91.0888 23.4881 90.8555C23.0992 90.6221 22.788 90.3109 22.5805 89.9219C22.3731 89.507 22.2434 89.0143 22.2434 88.5475C22.2434 88.0808 22.3472 87.614 22.5805 87.1732C22.8139 86.7323 23.1251 86.3952 23.5141 86.1618Z" fill="white"/>
<path d="M37.5689 78.3306H41.1993V81.572H42.4959V74H41.1993V77.1118H37.5689V74H36.2723V81.572H37.5689V78.3306Z" fill="white"/>
<path d="M45.4002 74H44.1036V81.572H45.4002V74Z" fill="white"/>
<path d="M51.9869 75.2965C51.7535 74.8557 51.3904 74.5445 50.9496 74.337C50.4569 74.1037 49.9123 73.9999 49.3678 74.0259H47.0339V81.572H48.3305V79.3937H49.3678C49.9123 79.3937 50.4569 79.29 50.9496 79.0825C51.3904 78.8751 51.7535 78.5639 51.9869 78.149C52.2203 77.7081 52.3499 77.2154 52.3499 76.7227C52.3499 76.23 52.2203 75.7373 51.9869 75.2965ZM50.5866 77.8119C50.3013 78.0712 49.8605 78.2009 49.29 78.2009H48.3305V75.1928H49.29C49.8605 75.1928 50.3013 75.3224 50.5866 75.5818C50.8718 75.8411 51.0274 76.2041 51.0274 76.6968C51.0274 77.1895 50.8977 77.5526 50.5866 77.8119Z" fill="white"/>
<path d="M65.1343 74H63.708V74.0259L60.2073 81.572H61.6854L62.4633 79.8346H66.3531L67.131 81.572H68.635L65.1343 74ZM62.956 78.7196L64.4082 75.4262L65.8604 78.7196H62.956Z" fill="white"/>
<path d="M35.7797 86.4995C35.4426 85.903 34.9759 85.4363 34.4054 85.0992C33.8089 84.762 33.1347 84.6064 32.4346 84.6064C31.7344 84.6064 31.0861 84.788 30.4638 85.0992C29.8933 85.4363 29.4006 85.903 29.0894 86.4995C28.7523 87.1218 28.5967 87.796 28.5967 88.4962C28.5967 89.1963 28.7782 89.8706 29.0894 90.4929C29.4006 91.0634 29.8933 91.5561 30.4638 91.8932C31.0602 92.2303 31.7344 92.3859 32.4346 92.3859C33.1347 92.3859 33.783 92.2044 34.4054 91.8932C34.9759 91.5561 35.4426 91.0894 35.7797 90.4929C36.1168 89.8706 36.2724 89.1963 36.2724 88.4962C36.2724 87.796 36.0909 87.1218 35.7797 86.4995ZM34.6128 89.8446C34.4054 90.2336 34.0942 90.5707 33.7311 90.8041C33.3422 91.0375 32.9013 91.1412 32.4605 91.1412C32.0197 91.1412 31.5788 91.0116 31.1898 90.8041C30.8009 90.5707 30.4897 90.2595 30.3082 89.8446C30.1007 89.4297 29.9711 88.963 29.9711 88.4703C29.9711 87.9776 30.0748 87.5367 30.3082 87.0959C30.5156 86.7069 30.8268 86.3698 31.1898 86.1364C31.5788 85.903 32.0197 85.7993 32.4605 85.7993C32.9013 85.7993 33.3422 85.929 33.7311 86.1364C34.1201 86.3698 34.4313 86.681 34.6128 87.0959C34.8203 87.5108 34.9499 87.9776 34.9499 88.4703C34.9499 88.963 34.8203 89.4297 34.6128 89.8446Z" fill="white"/>
<path d="M78.6965 84.71V85.9028H81.0563V92.282H82.3788V85.9028H84.7386V84.71H78.6965Z" fill="white"/>
<path d="M76.5959 89.8185L72.6802 84.71H71.5911V92.282H72.9136V87.1735L76.8293 92.282H77.9184V84.71H76.5959V89.8185Z" fill="white"/>
<path d="M43.8704 84.71L41.6662 88.7294L39.4102 84.71H37.7765V92.282H39.1768V87.0439L41.6403 91.4004L44.1557 86.9661V92.2561H45.556V84.6841H43.8704V84.71Z" fill="white"/>
<path d="M52.0907 86.0065C51.8314 85.5657 51.4683 85.2286 51.0275 85.0211C50.5348 84.7877 49.9643 84.684 49.4197 84.7099H47.0599V92.282H48.3825V90.1037H49.4197C49.9643 90.1037 50.5348 90 51.0275 89.7925C51.4683 89.5851 51.8314 89.2739 52.0907 88.859C52.3241 88.4182 52.4537 87.9255 52.4537 87.4328C52.4537 86.9401 52.3241 86.4474 52.0907 86.0065ZM50.6644 88.5219C50.3792 88.7812 49.9383 88.9109 49.3419 88.9109H48.3565V85.9028H49.3419C49.9124 85.9028 50.3533 86.0325 50.6644 86.2918C50.9497 86.5511 51.1053 86.9141 51.1053 87.4068C51.1312 87.8736 50.9756 88.2626 50.6644 88.5219Z" fill="white"/>
<path d="M56.4991 74H55.0729L51.598 81.572H53.0761L53.8541 79.8346H57.7179L58.4958 81.572H59.9999L56.4991 74ZM54.3468 78.7196L55.7989 75.4262L57.2511 78.7196H54.3468Z" fill="white"/>
<path d="M54.9951 84.71H53.6726V92.282H58.7033V91.0891H54.9951V84.71Z" fill="white"/>
<path d="M61.115 84.6841H59.7925V92.2561H61.115V84.6841Z" fill="white"/>
<path d="M67.0532 84.71H65.627L62.1262 92.282H63.6043L64.3823 90.5446H68.272L69.05 92.282H70.554L67.0532 84.71ZM64.875 89.4295L66.3271 86.1362L67.7793 89.4295H64.875Z" fill="white"/>
<path d="M52.6911 61.4042C52.7143 62.9813 52.7356 64.1303 52.7589 64.6941C52.7821 64.7619 52.7821 64.851 52.7589 64.9189C52.7589 65.0099 52.7589 65.0758 52.7589 65.0758C52.7589 65.3916 52.8034 65.7074 52.8945 66C52.9856 65.7074 53.0302 65.3916 53.0302 65.0758C53.0302 64.9634 53.0747 63.3185 53.1425 60.6815C53.1193 60.7047 53.098 60.726 53.098 60.7493C52.9391 60.9547 52.8034 61.1794 52.6911 61.4042ZM48.0039 28.501C48.3643 28.1174 48.7034 27.6679 48.9514 27.1932C48.7712 27.5981 48.0718 29.1307 48.748 29.2663C49.492 29.4019 50.3252 29.1753 51.8366 27.261C51.792 24.8042 51.7455 22.6632 51.7242 21.0415H50.9123C50.8678 21.0415 50.8445 21.0415 50.7999 21.0415C50.3485 21.0415 49.6064 20.9969 49.1103 20.2529C48.5697 19.4411 48.5465 18.608 48.5252 17.9996C48.5019 17.1199 48.2771 15.5215 47.1727 14.6186C46.4073 14.0102 44.3321 13.5374 42.4177 14.3028C41.7861 14.5508 40.5247 15.2037 39.2846 15.8121C38.1569 16.3759 36.7153 17.0734 36.2638 17.0734C37.0079 16.7363 37.9999 16.2403 39.0811 15.6319C40.3212 14.9557 41.6272 14.2349 42.2821 13.9637C43.59 13.4444 46.0915 13.2875 47.3761 14.3241C48.593 15.3161 48.841 17.0289 48.8642 17.9531C48.8875 18.5615 48.9088 19.3055 49.3835 20.0495C49.8117 20.6811 50.488 20.6811 50.8929 20.6811H50.984H51.7048C51.7048 20.4777 51.7048 20.2975 51.7048 20.096C50.984 20.1405 49.9474 20.187 49.4959 19.2163C48.9553 18.0441 49.5405 15.0468 47.7385 13.7854C45.9365 12.5241 43.0513 12.838 40.482 14.326C37.936 15.7908 34.5548 17.707 30.385 19.3733C26.2153 21.0396 23.6247 21.7177 23.1286 21.7855C22.6558 21.8766 23.5123 22.1905 25.293 22.237C27.0736 22.2835 28.5617 22.1459 28.5617 22.1459L41.633 16.1957C41.633 16.1957 30.3637 21.8068 29.4182 22.4152C28.4726 23.0236 27.7053 23.227 27.7731 23.7909C27.8409 24.3547 28.5617 24.2869 30.5459 24.2423C32.53 24.1977 32.9582 24.0175 33.6345 23.8141C34.3107 23.6107 41.6349 20.2316 41.6349 20.2316C41.6349 20.2316 33.7914 24.1299 32.6656 25.0328C31.5399 25.9357 32.7567 26.2263 33.5221 26.2496C34.3107 26.2728 36.4072 26.1585 37.5795 25.5734C38.7517 24.9882 42.4022 22.6438 42.4022 22.6438C42.4022 22.6438 38.7963 25.2363 38.0968 25.8214C37.533 26.2941 37.2404 26.701 37.376 27.197C37.5795 27.8287 38.6607 27.7609 40.1023 27.2416C40.1023 27.2416 41.5904 26.7223 42.1523 26.2283C42.7161 25.709 44.2934 24.312 44.2934 24.312C44.2934 24.312 42.4236 26.2496 41.9488 27.0847C41.4974 27.9178 41.4082 28.1212 41.633 28.594C41.9488 29.2702 44.3379 28.5707 45.0142 27.85C45.5102 27.2862 45.983 26.701 46.4112 26.0694C46.4112 26.0694 45.6904 27.2416 45.5315 27.9178C45.3746 28.594 45.1944 29.1346 45.8474 29.2024C46.5604 29.3128 47.2366 29.3361 48.0039 28.501ZM52.4663 43.8501C52.5341 43.8056 52.6019 43.7591 52.6698 43.7145C52.8054 43.6234 52.9178 43.5576 53.0069 43.4665C53.1871 43.3541 53.3673 43.2185 53.5475 43.1061C53.5708 41.8215 53.6153 40.5137 53.6386 39.2291C53.2782 39.0722 52.8945 38.9133 52.4896 38.7564C52.4663 38.7564 52.445 38.7331 52.4217 38.7331C52.3772 38.7099 52.3539 38.7099 52.3094 38.6885C52.0381 38.5975 51.7901 38.4851 51.4975 38.396C51.1603 38.2603 50.8213 38.148 50.4841 38.0123C48.2306 39.2059 47.7792 39.7697 47.7792 40.8741C47.7792 42.4299 49.1084 43.1274 51.4084 44.5922C51.7668 44.3229 52.1272 44.0749 52.4663 43.8501ZM49.6936 41.0775C49.6936 41.0775 49.5366 40.0855 52.0826 38.9365C52.1505 38.9133 52.2183 38.8687 52.2861 38.8455C52.3094 40.4013 52.3307 41.9552 52.3772 43.5111C51.1138 42.6547 49.6936 41.8428 49.6936 41.0775ZM53.5475 60.2107C53.4351 60.3463 53.3227 60.4819 53.2104 60.5943C53.8633 61.4739 53.8188 62.3303 53.4584 63.4347C53.7955 63.0511 54.4718 62.0823 53.9098 60.821C53.7955 60.6156 53.6831 60.4141 53.5475 60.2107ZM52.5109 50.9706C52.7589 51.2186 53.0515 51.5111 53.344 51.8037C53.5243 51.9839 53.7045 52.1641 53.9079 52.3675C53.9312 52.3908 53.9757 52.4121 54.0203 52.4586C55.5529 51.1294 56.95 49.8662 56.95 48.289C56.95 47.049 55.7564 45.9233 54.5609 45.0204C54.4485 45.0882 54.3361 45.156 54.2237 45.2452C53.9525 45.4253 53.7044 45.5823 53.4797 45.7412C53.4797 45.7412 53.4564 45.7412 53.4564 45.7644C53.4119 45.809 53.344 45.8322 53.2995 45.8768C52.9837 46.1015 52.6911 46.305 52.4198 46.5084C52.4663 48.0178 52.4876 49.529 52.5109 50.9706ZM53.4797 45.9911C54.9678 47.0722 55.5529 47.7717 55.5529 48.537C55.5529 49.3256 54.7198 50.2498 53.3673 51.6022C53.3906 49.7984 53.4351 47.9286 53.4797 45.9911ZM61.7069 24.3334C61.7069 24.3334 63.2841 25.7303 63.848 26.2496C64.4118 26.7688 65.898 27.2629 65.898 27.2629C67.3396 27.7822 68.4227 27.848 68.6242 27.2183C68.7812 26.7223 68.4673 26.2941 67.9034 25.8427C67.2039 25.2576 63.598 22.6651 63.598 22.6651C63.598 22.6651 67.2485 25.0096 68.4208 25.5947C69.593 26.1798 71.6895 26.2941 72.4782 26.2709C73.2668 26.2476 74.4623 25.9551 73.3346 25.0541C72.2069 24.1532 64.3653 20.2529 64.3653 20.2529C64.3653 20.2529 71.6682 23.6552 72.3658 23.8354C73.042 24.0389 73.4702 24.1958 75.4544 24.2636C77.4385 24.3082 78.136 24.376 78.2271 23.8122C78.3182 23.2716 77.5276 23.0682 76.5821 22.4365C75.6346 21.8281 64.3672 16.217 64.3672 16.217L77.4385 22.1672C77.4385 22.1672 78.9266 22.3028 80.7073 22.2583C82.488 22.2137 83.3444 21.8979 82.8716 21.8068C82.3988 21.7158 79.783 21.0628 75.6152 19.3946C71.4473 17.7264 68.0642 15.8334 65.5182 14.3473C62.9721 12.8825 60.0638 12.5435 58.2618 13.8067C56.4578 15.0681 57.0449 18.0441 56.5043 19.2377C56.0529 20.2064 55.0162 20.1619 54.2954 20.1173C54.2954 20.2975 54.2954 20.5009 54.2722 20.7024H55.0162H55.1073C55.5123 20.7024 56.1885 20.7024 56.6167 20.0708C57.0895 19.35 57.1127 18.5828 57.136 17.9744C57.1592 17.0502 57.4073 15.3374 58.6241 14.3454C59.9087 13.3088 62.4102 13.4657 63.7181 13.985C64.3711 14.233 65.679 14.9538 66.9191 15.6532C68.0003 16.2616 68.9924 16.7576 69.7364 17.0947C69.2636 17.0947 67.8433 16.3953 66.7156 15.8334C65.4988 15.2018 64.2374 14.5721 63.5825 14.3241C61.6662 13.5587 59.5929 14.0315 58.8275 14.6399C57.6998 15.5408 57.4983 17.1412 57.4751 18.0209C57.4518 18.6293 57.4305 19.4857 56.8899 20.2742C56.4171 21.0182 55.6731 21.0628 55.2003 21.0628C55.1557 21.0628 55.1325 21.0628 55.0879 21.0628H54.2761C54.2315 22.6845 54.185 24.8042 54.1404 27.2145C55.6731 29.1753 56.5528 29.4233 57.2736 29.2644C57.9498 29.1288 57.2736 27.5962 57.0701 27.1912C57.3414 27.664 57.6553 28.0922 58.0176 28.4991C58.7617 29.3322 59.4592 29.3109 60.1354 29.2198C60.8117 29.1288 60.6082 28.6114 60.4513 27.9352C60.2943 27.259 59.5716 26.0868 59.5716 26.0868C59.9998 26.6952 60.4726 27.3036 60.9686 27.8674C61.6449 28.5882 64.034 29.3089 64.3498 28.6114C64.5532 28.16 64.4854 27.9352 64.034 27.1021C63.5999 26.2709 61.7069 24.3334 61.7069 24.3334ZM53.0282 17.4357C53.3886 17.4357 53.749 17.3234 54.0416 17.1199C54.3342 16.9165 54.5822 16.6239 54.7178 16.3081C54.8535 15.971 54.898 15.6087 54.8302 15.2483C54.7624 14.8879 54.5822 14.5721 54.3342 14.3008C54.0862 14.0528 53.749 13.8726 53.3867 13.8048C53.0263 13.737 52.6659 13.7602 52.3268 13.9172C51.9896 14.0528 51.6951 14.3008 51.5149 14.5934C51.3115 14.886 51.1991 15.2463 51.1991 15.6067C51.1991 15.8547 51.2437 16.0795 51.3347 16.3062C51.4258 16.5309 51.5595 16.7344 51.7397 16.8913C51.9199 17.0715 52.1001 17.2071 52.3249 17.2962C52.5341 17.3912 52.7821 17.4357 53.0282 17.4357ZM59.0232 31.138C59.0232 31.138 58.9787 29.8766 56.9267 29.741C54.8302 29.6054 54.7411 30.5063 54.7856 30.8454C54.9426 30.8454 55.0782 30.89 55.0782 30.9365C55.0782 30.983 54.9658 31.0275 54.8302 31.0275C54.9426 31.3647 55.2584 31.7715 56.1594 32.2211C56.9035 32.5814 57.2639 32.5582 57.6921 32.4923C57.6921 32.4923 58.1881 32.7849 58.1881 33.2576C58.1881 33.7091 57.3995 34.5868 53.7025 36.4352C53.9273 26.4743 54.1307 17.7303 54.1307 17.7303H54.3555C54.4466 17.7303 54.5357 17.6857 54.6035 17.6179C54.6713 17.5501 54.7159 17.4609 54.7159 17.3699V17.2575C54.7159 17.2129 54.7159 17.1664 54.6926 17.1219C54.6694 17.0773 54.6481 17.0308 54.6016 17.0095C54.3981 17.2342 54.1734 17.4144 53.9021 17.5501C53.6308 17.6857 53.3382 17.7303 53.0457 17.7303C52.7531 17.7303 52.4605 17.6624 52.1892 17.5501C51.918 17.4377 51.6699 17.2342 51.4897 17.0095C51.4452 17.0541 51.4219 17.0773 51.3987 17.1219C51.3754 17.1664 51.3754 17.2129 51.3754 17.2575V17.3699C51.3754 17.4609 51.42 17.5501 51.4878 17.6179C51.5556 17.6857 51.6447 17.7303 51.7358 17.7303H51.9606C51.9606 17.7303 52.1175 26.2263 52.2764 36.007C52.5922 36.1639 52.9081 36.3228 53.2685 36.503C53.313 36.5263 53.3809 36.5476 53.4254 36.5708C54.2586 36.9758 54.9581 37.3148 55.5433 37.6306C57.5274 36.8653 59.465 35.9857 60.0502 34.7457C61.0985 32.4458 59.0232 31.138 59.0232 31.138ZM56.2737 30.6207C56.049 30.6207 55.8688 30.5083 55.8688 30.3727C55.8688 30.237 56.049 30.1246 56.2737 30.1246C56.4985 30.1246 56.6787 30.237 56.6787 30.3727C56.6806 30.5083 56.5005 30.6207 56.2737 30.6207ZM52.6911 59.1508C52.8713 58.9261 53.0282 58.6994 53.2104 58.4979C53.2336 57.2133 53.2782 55.7718 53.3014 54.2159C53.0767 53.9912 52.8286 53.7645 52.5574 53.5165C52.4663 53.4487 52.4004 53.3595 52.3094 53.2917C52.197 53.1793 52.0846 53.0883 51.9722 52.9992C51.3405 53.5843 50.1024 54.8921 50.1024 56.0198C50.1024 57.3489 51.387 58.7013 52.3559 59.6701C52.4431 59.4666 52.5554 59.3097 52.6911 59.1508ZM52.5554 53.7877C52.6 55.7039 52.6232 57.4613 52.6465 58.9706C51.9025 57.9786 51.1138 56.9653 51.1138 56.2658C51.1138 55.6129 51.4975 54.8689 52.5554 53.7877ZM53.0747 36.7956C48.6802 34.6778 47.7792 33.7071 47.7792 33.2344C47.7792 32.7616 48.2752 32.4691 48.2752 32.4691C48.7034 32.5601 49.0638 32.5601 49.8079 32.1978C50.7089 31.7696 51.0247 31.3414 51.1371 31.0043C51.0015 31.0043 50.8891 30.9597 50.8891 30.9132C50.8891 30.8667 51.0247 30.8222 51.1817 30.8222V30.7989C51.2049 30.4618 51.0906 29.5821 49.0173 29.7178C46.9673 29.8534 46.9208 31.1147 46.9208 31.1147C46.9208 31.1147 44.8475 32.4439 45.9287 34.6972C46.8762 36.7026 51.3153 37.7624 53.8846 38.9114C56.4307 40.0603 56.2737 41.0523 56.2737 41.0523C56.2737 41.9087 54.5609 42.8097 53.2084 43.7571C51.8559 44.7046 48.9941 46.3495 48.9941 48.2871C48.9941 50.0677 50.7747 51.4414 52.5109 52.974C54.2683 54.5066 54.8321 55.4308 54.8321 56.2871C54.8321 57.4594 52.8945 59.0365 51.9025 60.9973C50.9104 62.9581 52.8713 66 52.2628 64.3996C51.6312 62.7992 51.9703 61.6735 52.7821 60.5458C53.7742 59.1702 55.892 57.8197 55.892 55.9926C55.892 54.4601 53.6599 52.6581 53.6599 52.6581C51.6757 50.6741 50.4143 49.5484 50.4143 48.5564C50.4143 47.5644 51.3619 46.6867 54.0203 44.9506C56.6574 43.2379 58.2114 42.5617 58.2114 40.8934C58.2133 39.4326 57.4693 38.9133 53.0747 36.7956ZM49.6936 30.1479C49.9183 30.1479 50.0985 30.2603 50.0985 30.3959C50.0985 30.5315 49.9183 30.6439 49.6936 30.6439C49.4688 30.6439 49.2886 30.5315 49.2886 30.3959C49.2886 30.2603 49.4688 30.1479 49.6936 30.1479Z" fill="white"/>
</g>
<rect x="1.35559" y="0.5" width="103" height="103" rx="23.5" stroke="#3A73AF"/>
<defs>
<clipPath id="clip0_253_3825">
<rect x="0.855591" width="104" height="104" rx="24" fill="white"/>
</clipPath>
</defs>
</svg>
