<svg width="104" height="104" viewBox="0 0 104 104" fill="none" xmlns="http://www.w3.org/2000/svg">
<g clip-path="url(#clip0_253_3735)">
<path d="M104 0H0V104H104V0Z" fill="#00539F"/>
<path d="M34.6442 41.5256V35.7778H19.6439V41.5256H23.0863V53.8184H19.6439V59.5661H34.6442V53.8184H31.2035V41.5256H34.6442Z" fill="white"/>
<path d="M51.1975 44.9056C50.2702 44.6352 45.5 43.2711 44.6732 43.0007C43.8464 42.7303 43.1722 42.3437 43.1722 41.8549C43.1722 41.3661 43.9314 40.8427 45.4654 40.8427C50.3031 40.8427 52.6275 43.8257 52.6275 43.8257C52.6275 43.8257 52.8892 44.1741 52.9776 44.2989H57.6455V36.1592H52.6344V37.6395C52.2514 37.376 49.426 35.5317 45.0442 35.5317C39.2618 35.5317 36.043 38.5321 36.043 43.0163C36.043 47.5004 40.1059 49.3551 41.2343 49.8265C42.3644 50.298 46.781 51.546 48.6686 52.1353C50.5562 52.7247 51.2478 53.1476 51.2478 53.4509C51.2478 53.7543 50.421 54.5464 48.0619 54.5464C43.9504 54.5464 41.834 52.1215 41.4631 51.6535V51.65C41.3452 51.4923 41.2066 51.3051 41.1598 51.234C41.106 51.1525 40.9795 50.9705 40.8911 50.8457H36.2232V59.5384H41.4631V57.7236C42.0732 58.1292 45.1932 60.0757 48.939 60.0757C53.1198 60.0757 58.4463 58.2557 58.4463 52.5739C58.4463 46.892 52.1248 45.1743 51.1975 44.9056Z" fill="white"/>
<path d="M71.7513 35.4517C64.7816 35.4517 59.0668 38.9357 59.0668 47.8311C59.0668 56.7266 65.2721 60.0581 71.7825 60.0581C78.2929 60.0581 84.4358 56.7578 84.4358 47.923C84.4358 39.0882 78.2929 35.4517 71.7513 35.4517ZM71.812 54.1283C69.4269 54.1283 67.8998 53.5789 67.8998 47.8017C67.8998 42.0245 69.0317 41.4126 71.9038 41.4126C73.6458 41.4126 75.7553 41.5339 75.7553 47.6179C75.7553 53.7019 74.197 54.1283 71.812 54.1283Z" fill="white"/>
<path d="M29.6382 33.1533C31.2052 30.8393 33.1309 28.7887 35.3392 27.0866C36.2318 27.747 37.1817 28.345 38.1801 28.8789C36.5074 30.7422 35.0098 32.8066 34.762 33.1533H35.7656C36.367 32.3421 37.6133 30.7093 38.9272 29.2619C40.3624 29.9674 41.8877 30.5446 43.4806 30.9849C43.0577 31.8845 42.737 32.6697 42.5481 33.1533H43.42C43.621 32.6541 43.914 31.959 44.2797 31.1911C46.3112 31.6869 48.438 31.9659 50.615 32.0075V33.1533H51.4245V32.011C53.586 31.9954 55.7006 31.7493 57.7252 31.2865C58.0701 32.0162 58.3474 32.6749 58.5398 33.1533H59.4117C59.2314 32.6887 58.9281 31.9451 58.5294 31.0906C60.1501 30.6694 61.7049 30.1078 63.1696 29.4127C64.4332 30.8219 65.6136 32.3698 66.1942 33.1533H67.1978C66.9569 32.8187 65.5373 30.8601 63.9236 29.0401C65.0329 28.4663 66.085 27.8146 67.0696 27.0866C69.2778 28.7887 71.2053 30.841 72.7705 33.1533H73.7429C68.9572 25.7675 60.6424 20.8691 51.2061 20.8691C41.7698 20.8691 33.455 25.7658 28.6693 33.1533H29.6382ZM43.8412 30.2447C42.3262 29.8357 40.8737 29.3001 39.5044 28.6431C39.6898 28.449 39.877 28.2618 40.0608 28.085C41.9362 26.2771 45.0216 24.2907 45.6976 23.8626C46.247 24.1642 46.845 24.419 47.4812 24.6218C46.9872 25.2701 46.0148 26.5874 44.9574 28.2566C44.5466 28.9083 44.1705 29.5913 43.8412 30.2447ZM50.615 31.1998C48.5662 31.1582 46.5625 30.9034 44.6472 30.4493C44.947 29.8634 45.2816 29.2619 45.6421 28.6917C46.8606 26.7677 47.9596 25.3238 48.327 24.8523C49.0585 25.0239 49.8264 25.1331 50.6168 25.1678L50.615 31.1998ZM51.4245 31.2033V25.1765C52.2045 25.1626 52.9672 25.0811 53.6969 24.9338C54.1146 25.4746 55.1633 26.8682 56.3177 28.6899C56.6973 29.2897 57.0474 29.9258 57.3594 30.5394C55.4493 30.9623 53.4577 31.1877 51.4245 31.2033ZM58.1689 30.3487C57.8274 29.6641 57.434 28.943 57.0006 28.2583C55.997 26.6741 55.0714 25.4087 54.5566 24.7275C55.2344 24.5369 55.874 24.2907 56.4598 23.9909C57.4097 24.5993 60.1657 26.4175 61.8956 28.085C62.1244 28.3069 62.3584 28.5426 62.5906 28.7887C61.1953 29.4353 59.7116 29.957 58.1689 30.3487ZM66.3884 26.5822C65.4385 27.2669 64.4245 27.8805 63.3568 28.4213C63.0586 28.1006 62.757 27.7921 62.4589 27.5043C60.84 25.9443 58.4306 24.3063 57.2502 23.5367C57.6506 23.2767 58.0181 22.989 58.3457 22.677C61.2681 23.5107 63.9808 24.8471 66.3884 26.5822ZM51.2026 21.6803C53.3398 21.6803 55.4164 21.9403 57.4045 22.4291C55.8948 23.6546 53.6345 24.3739 51.2026 24.3739C48.7604 24.3739 46.5053 23.6563 44.9973 22.4291C46.9872 21.9403 49.0654 21.6803 51.2026 21.6803ZM44.0613 22.677C44.3282 22.9318 44.6194 23.171 44.9349 23.3911C43.8654 24.0793 41.2308 25.8351 39.4992 27.5043C39.2496 27.7453 38.9982 28.0001 38.7486 28.2653C37.7918 27.7643 36.8784 27.2027 36.0186 26.5822C38.4245 24.8471 41.1389 23.5107 44.0613 22.677Z" fill="white"/>
<path d="M72.7688 62.2593C71.2348 64.5248 69.3576 66.5372 67.2065 68.2185C66.1821 67.4489 65.0832 66.7608 63.9219 66.1593C65.3224 64.5803 66.5773 62.8972 67.0419 62.2611H66.0348C65.4143 63.0896 64.3257 64.4971 63.1696 65.7867C61.7049 65.0916 60.1501 64.53 58.5295 64.1071C58.8727 63.3739 59.1431 62.7239 59.3268 62.2593H58.4532C58.2677 62.7117 58.0216 63.2855 57.7252 63.9112C55.7024 63.4484 53.5877 63.2023 51.4245 63.1867V62.2593H50.6151V63.1901C48.4363 63.2317 46.3095 63.5108 44.2797 64.0048C43.9643 63.3409 43.7008 62.7325 43.5067 62.2576H42.6331C42.8255 62.7429 43.1149 63.4345 43.4807 64.2111C41.8877 64.6513 40.3624 65.2268 38.9272 65.934C37.7208 64.6045 36.5733 63.1191 35.9268 62.2576H34.9197C35.3999 62.9145 36.7241 64.6929 38.1836 66.3171C37.1332 66.8787 36.1365 67.5131 35.2023 68.2151C33.0529 66.5337 31.174 64.5213 29.64 62.2559H28.6676C33.4533 69.6416 41.7681 74.54 51.2044 74.54C60.6424 74.54 68.9555 69.6433 73.7412 62.2559L72.7688 62.2593ZM58.1707 64.8507C59.7133 65.2424 61.1953 65.7641 62.5941 66.4107C62.3619 66.6568 62.1279 66.8943 61.8991 67.1161C60.1744 68.7801 57.4253 70.5932 56.4703 71.2068C55.8827 70.9069 55.2431 70.6591 54.5636 70.4684C55.0801 69.7872 56.0023 68.5236 57.0024 66.9445C57.434 66.2581 57.8275 65.5353 58.1707 64.8507ZM51.4245 63.9979C53.4612 64.0135 55.4528 64.2371 57.3595 64.66C57.0475 65.2753 56.6973 65.9097 56.3177 66.5112C55.1651 68.3312 54.1199 69.7213 53.6987 70.2656C52.9707 70.12 52.208 70.0385 51.4228 70.0264L51.4245 63.9979ZM50.6151 64.0013V70.0316C49.8212 70.0663 49.0533 70.1737 48.3236 70.3436C47.9544 69.8704 46.8589 68.43 45.6421 66.5077C45.2816 65.9375 44.9471 65.3343 44.6472 64.7484C46.5591 64.296 48.5628 64.0429 50.6151 64.0013ZM43.8412 64.9547C44.1705 65.6081 44.5467 66.2928 44.9575 66.9428C46.0148 68.612 46.9855 69.9276 47.4795 70.5759C46.8416 70.7787 46.2436 71.0335 45.6959 71.3351C45.0164 70.9052 41.9345 68.9205 40.0608 67.1144C39.8771 66.9376 39.6916 66.7487 39.5044 66.5563C40.8737 65.8993 42.3263 65.3637 43.8412 64.9547ZM35.8713 68.7264C36.7727 68.0643 37.7347 67.4663 38.7469 66.9359C38.9983 67.2011 39.2496 67.4576 39.4992 67.6968C41.2291 69.366 43.8637 71.1201 44.9332 71.81C44.5519 72.0769 44.2052 72.3699 43.8949 72.6888C40.9777 71.8343 38.2703 70.4788 35.8713 68.7264ZM51.2027 73.734C48.9961 73.734 46.8537 73.4567 44.8049 72.9384C46.2991 71.6245 48.6737 70.8272 51.2027 70.8272C53.7281 70.8272 56.1045 71.6245 57.5987 72.9384C55.5533 73.4584 53.4092 73.734 51.2027 73.734ZM58.5104 72.6888C58.1429 72.3109 57.7235 71.966 57.2555 71.6609C58.4376 70.8913 60.8435 69.2568 62.4589 67.6985C62.7571 67.4108 63.0587 67.1023 63.3568 66.7816C64.48 67.3501 65.5425 67.9984 66.534 68.7281C64.1368 70.4805 61.4293 71.8343 58.5104 72.6888Z" fill="white"/>
<path d="M21.1883 83.1256C21.2247 83.7946 21.4829 84.2574 21.9631 84.514C22.2109 84.6492 22.4883 84.7168 22.7985 84.7168C23.3775 84.7168 23.8715 84.4758 24.2805 83.9922C24.6896 83.5086 24.9791 82.5293 25.1507 81.0508C24.8803 81.4772 24.5475 81.777 24.1505 81.9504C23.7536 82.1237 23.3255 82.2104 22.8661 82.2104C21.9353 82.2104 21.2004 81.9209 20.6596 81.342C20.1188 80.763 19.8484 80.0177 19.8484 79.1077C19.8484 78.2324 20.1153 77.4628 20.6509 76.7989C21.1865 76.135 21.9735 75.8022 23.0169 75.8022C24.4227 75.8022 25.3933 76.4349 25.9272 77.702C26.2236 78.397 26.3727 79.2689 26.3727 80.3141C26.3727 81.4945 26.1959 82.5414 25.8405 83.4514C25.2512 84.9681 24.2545 85.7273 22.8488 85.7273C21.9059 85.7273 21.1883 85.4794 20.6995 84.9854C20.2107 84.4914 19.9645 83.8709 19.9645 83.1256H21.1883ZM24.3447 80.6694C24.7416 80.354 24.9409 79.801 24.9409 79.0106C24.9409 78.3017 24.7624 77.773 24.4053 77.4264C24.0483 77.0797 23.5941 76.9046 23.0412 76.9046C22.4484 76.9046 21.9769 77.104 21.6303 77.4992C21.2819 77.8961 21.1085 78.4265 21.1085 79.0904C21.1085 79.7178 21.2611 80.217 21.5661 80.588C21.8712 80.9572 22.3583 81.1426 23.0291 81.1426C23.5075 81.1444 23.9477 80.9866 24.3447 80.6694Z" fill="white"/>
<path d="M33.4724 77.3566C33.904 78.1522 34.1189 79.2408 34.1189 80.6257C34.1189 81.9378 33.9231 83.0229 33.5331 83.8809C32.9663 85.1116 32.0406 85.7269 30.7562 85.7269C29.5966 85.7269 28.7352 85.2242 28.1684 84.2172C27.6969 83.3765 27.4612 82.2498 27.4612 80.8337C27.4612 79.7382 27.6033 78.797 27.8859 78.0101C28.4163 76.5454 29.3748 75.814 30.7632 75.814C32.0112 75.814 32.9142 76.3288 33.4724 77.3566ZM32.2504 83.7856C32.623 83.2292 32.8102 82.1909 32.8102 80.6725C32.8102 79.577 32.675 78.674 32.4046 77.9668C32.1342 77.2596 31.6108 76.906 30.8325 76.906C30.1167 76.906 29.5932 77.2422 29.2638 77.913C28.9328 78.5838 28.7681 79.5736 28.7681 80.8805C28.7681 81.865 28.8739 82.6554 29.0853 83.2517C29.4095 84.1634 29.9624 84.6193 30.7459 84.6193C31.3751 84.621 31.8777 84.342 32.2504 83.7856Z" fill="white"/>
<path d="M41.1476 77.3566C41.5792 78.1522 41.7941 79.2408 41.7941 80.6257C41.7941 81.9378 41.5982 83.0229 41.2082 83.8809C40.6414 85.1116 39.7158 85.7269 38.4314 85.7269C37.2718 85.7269 36.4104 85.2242 35.8436 84.2172C35.3721 83.3765 35.1364 82.2498 35.1364 80.8337C35.1364 79.7382 35.2785 78.797 35.561 78.0101C36.0914 76.5454 37.05 75.814 38.4384 75.814C39.6864 75.814 40.5894 76.3288 41.1476 77.3566ZM39.9256 83.7856C40.2982 83.2292 40.4854 82.1909 40.4854 80.6725C40.4854 79.577 40.3502 78.674 40.0798 77.9668C39.8094 77.2596 39.286 76.906 38.5077 76.906C37.7918 76.906 37.2684 77.2422 36.939 77.913C36.608 78.5838 36.4433 79.5736 36.4433 80.8805C36.4433 81.865 36.549 82.6554 36.7605 83.2517C37.0846 84.1634 37.6376 84.6193 38.421 84.6193C39.0502 84.621 39.5529 84.342 39.9256 83.7856Z" fill="white"/>
<path d="M43.7008 78.6308V77.7C44.5761 77.6151 45.188 77.4729 45.5329 77.2719C45.8796 77.0725 46.1379 76.5993 46.3077 75.854H47.2645V85.4636H45.9715V78.6308H43.7008Z" fill="white"/>
<path d="M51.5857 78.3413H52.9949V79.8094H51.5857V78.3413ZM51.5857 83.9937H52.9949V85.4636H51.5857V83.9937Z" fill="white"/>
<path d="M54.8357 83.2935C55.1339 82.6782 55.718 82.1183 56.5847 81.6156L57.8777 80.8686C58.4567 80.5323 58.864 80.2446 59.098 80.0054C59.4655 79.631 59.6509 79.2046 59.6509 78.7227C59.6509 78.1594 59.4828 77.7139 59.1448 77.3828C58.8085 77.0518 58.3579 76.8871 57.7963 76.8871C56.966 76.8871 56.3905 77.2026 56.0716 77.8335C55.9017 78.1715 55.8064 78.6395 55.7891 79.2392H54.5567C54.5705 78.3986 54.7248 77.7139 55.0212 77.1835C55.5464 76.2492 56.4737 75.7812 57.8049 75.7812C58.9108 75.7812 59.7168 76.0794 60.2281 76.6774C60.7377 77.2754 60.9925 77.9392 60.9925 78.6724C60.9925 79.4455 60.7204 80.1059 60.1779 80.6536C59.8624 80.9726 59.2991 81.3591 58.4861 81.8132L57.5623 82.3246C57.122 82.5673 56.7753 82.7978 56.524 83.0179C56.0751 83.4079 55.7908 83.843 55.6747 84.3179H60.944V85.4636H54.3192C54.366 84.6316 54.5376 83.9088 54.8357 83.2935Z" fill="white"/>
<path d="M68.0073 77.3566C68.4389 78.1522 68.6538 79.2408 68.6538 80.6257C68.6538 81.9378 68.458 83.0229 68.068 83.8809C67.5012 85.1116 66.5756 85.7269 65.2912 85.7269C64.1316 85.7269 63.2701 85.2242 62.7033 84.2172C62.2318 83.3765 61.9961 82.2498 61.9961 80.8337C61.9961 79.7382 62.1382 78.797 62.4208 78.0101C62.9512 76.5454 63.9097 75.814 65.2981 75.814C66.5461 75.814 67.4492 76.3288 68.0073 77.3566ZM66.7853 83.7856C67.1597 83.2292 67.3452 82.1909 67.3452 80.6725C67.3452 79.577 67.21 78.674 66.9396 77.9668C66.6692 77.2596 66.1457 76.906 65.3674 76.906C64.6516 76.906 64.1281 77.2422 63.7988 77.913C63.4677 78.5838 63.303 79.5736 63.303 80.8805C63.303 81.865 63.4088 82.6554 63.6202 83.2517C63.9444 84.1634 64.4973 84.6193 65.2808 84.6193C65.9117 84.621 66.4126 84.342 66.7853 83.7856Z" fill="white"/>
<path d="M70.5605 78.6308V77.7C71.4359 77.6151 72.0477 77.4729 72.3927 77.2719C72.7376 77.0725 72.9959 76.5993 73.1675 75.854H74.1243V85.4636H72.8312V78.6308H70.5605Z" fill="white"/>
<path d="M78.6205 83.0043C78.702 83.6959 79.0226 84.1743 79.5842 84.4395C79.872 84.5746 80.2048 84.6423 80.5809 84.6423C81.3002 84.6423 81.8324 84.4135 82.1773 83.9541C82.5222 83.4965 82.6956 82.9887 82.6956 82.4305C82.6956 81.7563 82.4893 81.2363 82.0785 80.8671C81.6677 80.4979 81.1737 80.3141 80.6 80.3141C80.1822 80.3141 79.8234 80.3956 79.5253 80.5568C79.2272 80.718 78.9724 80.9433 78.7609 81.2311L77.7105 81.1704L78.4454 75.9756H83.4582V77.1473H79.3537L78.9429 79.8288C79.1682 79.6589 79.3814 79.5306 79.5825 79.444C79.9413 79.2949 80.3573 79.2221 80.8288 79.2221C81.7145 79.2221 82.4633 79.5081 83.0786 80.0784C83.694 80.6486 84.0025 81.3715 84.0025 82.2485C84.0025 83.1603 83.72 83.9645 83.1566 84.6613C82.5933 85.3581 81.6937 85.7065 80.4578 85.7065C79.6709 85.7065 78.9758 85.4847 78.3726 85.0427C77.7677 84.6007 77.4297 83.9212 77.3586 83.0043H78.6205Z" fill="white"/>
</g>
<rect x="0.5" y="0.5" width="103" height="103" rx="23.5" stroke="#004584"/>
<defs>
<clipPath id="clip0_253_3735">
<rect width="104" height="104" rx="24" fill="white"/>
</clipPath>
</defs>
</svg>
