<svg width="104" height="104" viewBox="0 0 104 104" fill="none" xmlns="http://www.w3.org/2000/svg">
<rect x="0.5" y="0.5" width="103" height="103" rx="23.5" fill="white"/>
<rect x="0.5" y="0.5" width="103" height="103" rx="23.5" stroke="#E8EAF3"/>
<path d="M52.4884 31.7228H34.1295V13.3643H52.488V31.7228H52.4884Z" fill="#F1511B"/>
<path d="M72.7588 31.7228H54.3999V13.3643H72.7588V31.7228Z" fill="#80CC28"/>
<path d="M52.488 51.9997H34.1299V33.6416H52.488V51.9997Z" fill="#00ADEF"/>
<path d="M72.7588 51.9997H54.3999V33.6416H72.7588V51.9997Z" fill="#FBBC09"/>
<path d="M88.4263 70.4071V68.6188H86.2056V65.8388L86.1308 65.8618L84.045 66.5003L84.004 66.5125V68.6188H80.7119V67.4455C80.7119 66.8991 80.8342 66.4808 81.0744 66.2021C81.3136 65.9266 81.6557 65.7867 82.092 65.7867C82.4056 65.7867 82.7308 65.8607 83.057 66.0061L83.139 66.0424V64.1591L83.1005 64.1447C82.7955 64.035 82.3812 63.98 81.8675 63.98C81.2198 63.98 80.631 64.121 80.1181 64.4001C79.6044 64.6799 79.2005 65.0792 78.9178 65.5867C78.6355 66.0938 78.4923 66.6794 78.4923 67.3279V68.6181H76.946V70.4064H78.4923V77.9402H80.7122V70.4064H84.0044V75.1941C84.0044 77.1658 84.9342 78.165 86.7682 78.165C87.0699 78.165 87.3872 78.1298 87.7113 78.0604C88.0411 77.9892 88.2655 77.9183 88.3972 77.8428L88.4267 77.8255V76.021L88.336 76.0807C88.2159 76.1609 88.0659 76.2267 87.8897 76.2753C87.7131 76.3249 87.5652 76.3497 87.4512 76.3497C87.0218 76.3497 86.7042 76.2343 86.507 76.0059C86.3074 75.775 86.206 75.3718 86.206 74.8081V70.4067H88.4267L88.4263 70.4071ZM71.9882 76.3505C71.1825 76.3505 70.5473 76.0832 70.0999 75.557C69.6492 75.0283 69.4212 74.274 69.4212 73.3162C69.4212 72.3278 69.6492 71.5541 70.1002 71.016C70.5477 70.4808 71.1771 70.21 71.9702 70.21C72.7403 70.21 73.3528 70.4693 73.7916 70.9804C74.233 71.4948 74.4567 72.2623 74.4567 73.2622C74.4567 74.2744 74.2463 75.052 73.8312 75.5721C73.419 76.0882 72.7989 76.3505 71.9882 76.3505ZM72.0871 68.3943C70.5499 68.3943 69.3291 68.8446 68.4587 69.7331C67.589 70.6215 67.1473 71.8509 67.1473 73.3874C67.1473 74.847 67.5778 76.021 68.4274 76.8759C69.2766 77.7316 70.4322 78.165 71.8623 78.165C73.3525 78.165 74.5488 77.7086 75.4192 76.808C76.2889 75.908 76.7299 74.6905 76.7299 73.1896C76.7299 71.7077 76.3162 70.5244 75.4998 69.6748C74.6836 68.8252 73.5356 68.3943 72.0871 68.3943ZM63.5685 68.3943C62.5229 68.3943 61.6578 68.6616 60.9971 69.1892C60.3321 69.7198 59.995 70.4154 59.995 71.257C59.995 71.6948 60.0677 72.0836 60.2112 72.4134C60.3554 72.7439 60.5784 73.0353 60.8745 73.2799C61.1687 73.5223 61.6226 73.7762 62.224 74.0345C62.7293 74.2427 63.1063 74.4186 63.3458 74.5571C63.58 74.693 63.7461 74.8297 63.8397 74.9628C63.931 75.093 63.9774 75.2711 63.9774 75.4912C63.9774 76.1174 63.5084 76.422 62.5434 76.422C62.1855 76.422 61.7773 76.3476 61.3295 76.2001C60.8856 76.0548 60.4666 75.8422 60.0868 75.5699L59.9947 75.5041V77.6406L60.0289 77.6568C60.3429 77.8021 60.7389 77.9241 61.2057 78.0201C61.6715 78.1165 62.0948 78.1658 62.4624 78.1658C63.5972 78.1658 64.5105 77.8967 65.1773 77.3666C65.8485 76.8324 66.1884 76.1203 66.1884 75.2491C66.1884 74.6208 66.0053 74.082 65.6445 73.6475C65.2866 73.2166 64.664 72.8206 63.7969 72.4706C63.1055 72.1929 62.6624 71.9627 62.4801 71.7861C62.3042 71.6153 62.2146 71.3736 62.2146 71.0678C62.2146 70.797 62.325 70.5797 62.5516 70.4035C62.78 70.2269 63.0973 70.137 63.4962 70.137C63.8659 70.137 64.2443 70.1956 64.6209 70.31C64.9967 70.4247 65.3273 70.578 65.6028 70.7657L65.6935 70.8276V68.8008L65.6589 68.7857C65.4039 68.6763 65.069 68.5832 64.6615 68.5073C64.2565 68.4325 63.8886 68.3943 63.5685 68.3943ZM54.2089 76.3505C53.4032 76.3505 52.768 76.0832 52.3205 75.557C51.8699 75.0283 51.6422 74.2744 51.6422 73.3162C51.6422 72.3278 51.8702 71.5541 52.3209 71.016C52.7683 70.4808 53.3974 70.21 54.1909 70.21C54.9606 70.21 55.5731 70.4693 56.0119 70.9804C56.4533 71.4948 56.677 72.2623 56.677 73.2622C56.677 74.2744 56.4666 75.052 56.0515 75.5721C55.639 76.0882 55.0196 76.3505 54.2089 76.3505ZM54.3078 68.3943C52.7705 68.3943 51.5494 68.8446 50.6797 69.7331C49.8096 70.6215 49.3679 71.8509 49.3679 73.3874C49.3679 74.8474 49.7988 76.021 50.648 76.8759C51.4972 77.7316 52.6529 78.165 54.083 78.165C55.5728 78.165 56.7701 77.7086 57.6399 76.808C58.5096 75.908 58.9505 74.6905 58.9505 73.1896C58.9505 71.7077 58.5365 70.5244 57.7204 69.6748C56.9036 68.8252 55.7551 68.3943 54.3078 68.3943ZM45.9981 70.2334V68.6188H43.8055V77.9402H45.9981V73.1723C45.9981 72.3612 46.1819 71.6955 46.5444 71.1923C46.9027 70.6952 47.38 70.4431 47.963 70.4431C48.1605 70.4431 48.3821 70.4758 48.6223 70.5402C48.8601 70.6042 49.032 70.6736 49.1334 70.747L49.2255 70.8135V68.6029L49.1903 68.5875C48.986 68.5008 48.6971 68.4569 48.3313 68.4569C47.7803 68.4569 47.2872 68.6339 46.8646 68.9828C46.4941 69.2892 46.2258 69.7097 46.0208 70.2334H45.9981ZM39.8789 68.3943C38.8728 68.3943 37.9758 68.6101 37.2122 69.0353C36.4475 69.4611 35.8562 70.0701 35.4537 70.8438C35.0534 71.6156 34.8498 72.517 34.8498 73.5227C34.8498 74.4035 35.0469 75.2113 35.4368 75.9242C35.8271 76.6378 36.3792 77.1957 37.0777 77.5831C37.7751 77.9697 38.5822 78.1658 39.4749 78.1658C40.5169 78.1658 41.4068 77.9571 42.12 77.5464L42.1488 77.5298V75.521L42.0567 75.5883C41.7283 75.8264 41.3669 76.0145 40.9838 76.1472C40.5961 76.2821 40.2429 76.3508 39.9332 76.3508C39.0728 76.3508 38.3819 76.0818 37.8805 75.5509C37.378 75.0193 37.1233 74.2733 37.1233 73.3342C37.1233 72.3893 37.3892 71.6239 37.9128 71.0592C38.4347 70.4956 39.1271 70.21 39.9695 70.21C40.6899 70.21 41.3924 70.4542 42.0571 70.9362L42.1488 71.0027V68.8857L42.1189 68.8691C41.869 68.7292 41.528 68.6137 41.1046 68.526C40.6831 68.4386 40.2705 68.3943 39.8789 68.3943ZM33.3395 68.6188H31.1469V77.9402H33.3395V68.6188ZM32.2655 64.6479C31.9048 64.6479 31.59 64.7706 31.3318 65.0141C31.0721 65.2583 30.9401 65.5658 30.9401 65.9284C30.9401 66.2855 31.0703 66.5873 31.3275 66.8247C31.5828 67.0617 31.8986 67.1819 32.2659 67.1819C32.6331 67.1819 32.9503 67.0621 33.2086 66.825C33.469 66.5873 33.6006 66.2852 33.6006 65.9284C33.6006 65.5784 33.4722 65.2745 33.2194 65.0238C32.9662 64.7745 32.6453 64.6479 32.2655 64.6479ZM26.7948 67.9311V77.9402H29.0327V64.9335H25.9355L21.9988 74.5949L18.1783 64.9335H14.9548V77.9406H17.0579V67.9303H17.1302L21.1643 77.9406H22.7513L26.7225 67.9318L26.7948 67.9311Z" fill="#706D6E"/>
<path d="M19.4051 83.7266H17.6268V89.2333H16.9053V83.7266H15.1313V83.0737H19.4054V83.7266H19.4051Z" fill="black"/>
<path d="M24.7875 89.2336H23.9286L22.8977 87.5068C22.8031 87.3464 22.7114 87.2097 22.6229 87.0967C22.5341 86.9838 22.4431 86.8914 22.3503 86.8198C22.2571 86.7482 22.1572 86.6961 22.0496 86.663C21.9421 86.6302 21.8212 86.6137 21.6867 86.6137H21.0932V89.234H20.3717V83.0737H22.21C22.4791 83.0737 22.7276 83.1075 22.9553 83.1748C23.183 83.2421 23.3804 83.3446 23.548 83.482C23.7156 83.6194 23.8466 83.7906 23.9412 83.9952C24.0358 84.1999 24.0829 84.4398 24.0829 84.7146C24.0829 84.9293 24.0505 85.1264 23.9861 85.3052C23.9217 85.4843 23.83 85.644 23.7113 85.7843C23.5926 85.9246 23.4495 86.044 23.2819 86.1429C23.1143 86.2418 22.9262 86.3184 22.7172 86.3727V86.39C22.8204 86.4357 22.9096 86.4882 22.9855 86.5468C23.0614 86.6054 23.1337 86.6748 23.2024 86.7551C23.2711 86.8353 23.3391 86.9263 23.4063 87.0277C23.4736 87.1295 23.5488 87.2475 23.6318 87.382L24.7875 89.2336ZM21.0932 83.7266V85.9602H22.0726C22.2532 85.9602 22.4197 85.9328 22.5729 85.8785C22.7262 85.8242 22.8585 85.7462 22.9704 85.6444C23.0819 85.5429 23.1693 85.4181 23.2326 85.2707C23.2955 85.1232 23.3272 84.9577 23.3272 84.7747C23.3272 84.4452 23.2204 84.1884 23.0071 84.0035C22.7938 83.8186 22.4852 83.7266 22.0813 83.7266H21.0932Z" fill="black"/>
<path d="M30.1394 86.7421C30.1394 88.4718 29.3589 89.3365 27.7983 89.3365C26.3034 89.3365 25.556 88.5045 25.556 86.8407V83.0737H26.2775V86.7935C26.2775 88.0564 26.8102 88.688 27.8756 88.688C28.9036 88.688 29.4176 88.078 29.4176 86.8579V83.0737H30.1391V86.7421H30.1394Z" fill="black"/>
<path d="M31.3894 88.9841V88.1334C31.4869 88.2194 31.6034 88.2967 31.7394 88.3654C31.8753 88.4341 32.0185 88.492 32.1688 88.5395C32.3192 88.5866 32.4702 88.6233 32.622 88.6492C32.7738 88.6751 32.9141 88.6877 33.0429 88.6877C33.4867 88.6877 33.8183 88.6053 34.0374 88.4406C34.2564 88.2759 34.3661 88.0388 34.3661 87.7299C34.3661 87.5637 34.3294 87.4191 34.2564 87.2961C34.1834 87.1731 34.0823 87.0605 33.9536 86.9587C33.8248 86.8569 33.6723 86.7598 33.496 86.6666C33.3198 86.5735 33.1303 86.4757 32.927 86.3724C32.7123 86.2634 32.512 86.1534 32.3257 86.0415C32.1393 85.93 31.9778 85.8067 31.8401 85.6721C31.7027 85.5376 31.5944 85.3851 31.5157 85.2146C31.4369 85.0441 31.3977 84.8445 31.3977 84.6154C31.3977 84.3348 31.4592 84.0906 31.5826 83.8831C31.7056 83.6755 31.8674 83.5043 32.0681 83.3698C32.2685 83.2353 32.4969 83.1349 32.7533 83.0691C33.0094 83.0033 33.2709 82.9702 33.5371 82.9702C34.1442 82.9702 34.5866 83.0432 34.8643 83.1893V84.0011C34.5006 83.7493 34.0338 83.623 33.464 83.623C33.3065 83.623 33.149 83.6396 32.9914 83.6723C32.8339 83.7054 32.6936 83.759 32.5706 83.8334C32.4476 83.9079 32.3472 84.0039 32.2699 84.1212C32.1926 84.2384 32.1541 84.382 32.1541 84.5506C32.1541 84.7082 32.1836 84.8441 32.2422 84.9585C32.3008 85.0733 32.3875 85.1776 32.5023 85.2722C32.6166 85.3668 32.7562 85.4585 32.9209 85.547C33.0857 85.6358 33.2752 85.7333 33.4899 85.839C33.7104 85.948 33.9194 86.0624 34.1172 86.1825C34.315 86.3027 34.488 86.4361 34.637 86.5821C34.7859 86.7281 34.9038 86.89 34.9912 87.0677C35.0786 87.2454 35.1222 87.4486 35.1222 87.6777C35.1222 87.9813 35.0628 88.2381 34.9438 88.4489C34.8251 88.6593 34.6646 88.8305 34.4625 88.9621C34.2607 89.0938 34.028 89.1891 33.7644 89.2477C33.5007 89.3063 33.2231 89.3358 32.931 89.3358C32.8335 89.3358 32.7134 89.3279 32.5702 89.3121C32.4271 89.2963 32.2811 89.2736 32.1321 89.2434C31.9832 89.2132 31.8422 89.1761 31.7092 89.1315C31.5764 89.088 31.4696 89.0384 31.3894 88.9841Z" fill="black"/>
<path d="M39.9932 83.7266H38.2149V89.2333H37.4934V83.7266H35.7195V83.0737H39.9936V83.7266H39.9932Z" fill="black"/>
<path d="M44.2242 89.2336H40.9597V83.0737H44.0868V83.7266H41.6812V85.7753H43.9062V86.4238H41.6812V88.5801H44.2242V89.2336Z" fill="black"/>
<path d="M45.4097 89.2336V83.0737H47.1106C49.2813 83.0737 50.3664 84.0747 50.3664 86.0763C50.3664 87.027 50.065 87.7909 49.4622 88.3679C48.8594 88.9448 48.0526 89.2333 47.0415 89.2333H45.4097V89.2336ZM46.1315 83.7266V88.5804H47.0509C47.8584 88.5804 48.4871 88.3643 48.9367 87.9319C49.3863 87.4996 49.6111 86.8867 49.6111 86.0936C49.6111 84.5157 48.772 83.7269 47.094 83.7269H46.1315V83.7266Z" fill="black"/>
<path d="M54.7096 86.9054V89.2336H53.988V83.0737H55.6803C56.3389 83.0737 56.8493 83.2341 57.2115 83.555C57.5737 83.8758 57.755 84.3283 57.755 84.9124C57.755 85.4965 57.5539 85.9749 57.1514 86.3472C56.7489 86.7195 56.2058 86.9058 55.5214 86.9058H54.7096V86.9054ZM54.7096 83.7266V86.2522H55.4656C55.9638 86.2522 56.3439 86.1382 56.6061 85.9105C56.8684 85.6828 56.9993 85.3613 56.9993 84.9462C56.9993 84.133 56.518 83.7262 55.5559 83.7262H54.7096V83.7266Z" fill="black"/>
<path d="M63.0038 89.2333H62.2049L61.5521 87.5064H58.9404L58.3261 89.2333H57.5229L59.8853 83.0737H60.6327L63.0038 89.2333ZM61.3158 86.8576L60.3493 84.233C60.3177 84.147 60.2864 84.0096 60.2547 83.8208H60.2375C60.2087 83.9956 60.1759 84.133 60.1385 84.233L59.1807 86.8576H61.3158Z" fill="black"/>
<path d="M68.3258 89.2336H67.4669L66.4361 87.5068C66.3415 87.3464 66.2498 87.2097 66.1613 87.0967C66.0724 86.9838 65.9814 86.8914 65.8886 86.8198C65.7955 86.7482 65.6955 86.6961 65.588 86.663C65.4804 86.6302 65.3596 86.6137 65.225 86.6137H64.6323V89.234H63.9108V83.0737H65.7491C66.0181 83.0737 66.2667 83.1075 66.4943 83.1748C66.722 83.2421 66.9195 83.3446 67.0871 83.482C67.2547 83.6194 67.3856 83.7906 67.4802 83.9952C67.5748 84.1999 67.6219 84.4398 67.6219 84.7146C67.6219 84.9293 67.5896 85.1264 67.5252 85.3052C67.4608 85.4843 67.3691 85.644 67.2504 85.7843C67.1317 85.9246 66.9885 86.044 66.8209 86.1429C66.6533 86.2418 66.4652 86.3184 66.2562 86.3727V86.39C66.3595 86.4357 66.4487 86.4882 66.5246 86.5468C66.6005 86.6054 66.6727 86.6748 66.7414 86.7551C66.8101 86.8353 66.8781 86.9263 66.9454 87.0277C67.0126 87.1295 67.0878 87.2475 67.1709 87.382L68.3258 89.2336ZM64.6319 83.7266V85.9602H65.6113C65.7919 85.9602 65.9584 85.9328 66.1117 85.8785C66.2649 85.8242 66.3972 85.7462 66.5091 85.6444C66.621 85.5429 66.708 85.4181 66.7713 85.2707C66.8342 85.1232 66.8659 84.9577 66.8659 84.7747C66.8659 84.4452 66.7591 84.1884 66.5458 84.0035C66.3325 83.8186 66.0239 83.7266 65.62 83.7266H64.6319Z" fill="black"/>
<path d="M72.5869 83.7266H70.8087V89.2333H70.0872V83.7266H68.3132V83.0737H72.5873V83.7266H72.5869Z" fill="black"/>
<path d="M78.519 89.2336H77.6342L74.4643 84.324C74.3841 84.201 74.3183 84.0722 74.2668 83.9373H74.2409C74.264 84.069 74.2755 84.3513 74.2755 84.7836V89.2336H73.554V83.0737H74.4902L77.5745 87.906C77.7032 88.1064 77.7863 88.2441 77.8237 88.3182H77.841C77.8122 88.1405 77.7982 87.8388 77.7982 87.4118V83.0737H78.5197V89.2336H78.519Z" fill="black"/>
<path d="M83.3986 89.2336H80.1342V83.0737H83.2612V83.7266H80.8557V85.7753H83.0807V86.4238H80.8557V88.5801H83.3986V89.2336Z" fill="black"/>
<path d="M89 89.2336H88.1411L87.1103 87.5068C87.0157 87.3464 86.924 87.2097 86.8355 87.0967C86.7466 86.9838 86.6556 86.8914 86.5628 86.8198C86.4697 86.7482 86.3697 86.6961 86.2621 86.663C86.1546 86.6302 86.0338 86.6137 85.8992 86.6137H85.3065V89.234H84.585V83.0737H86.4233C86.6923 83.0737 86.9409 83.1075 87.1685 83.1748C87.3962 83.2421 87.5937 83.3446 87.7613 83.482C87.9289 83.6194 88.0598 83.7906 88.1544 83.9952C88.249 84.1999 88.2961 84.4398 88.2961 84.7146C88.2961 84.9293 88.2638 85.1264 88.1994 85.3052C88.135 85.4843 88.0433 85.644 87.9246 85.7843C87.8059 85.9246 87.6627 86.044 87.4951 86.1429C87.3275 86.2418 87.1394 86.3184 86.9304 86.3727V86.39C87.0337 86.4357 87.1229 86.4882 87.1988 86.5468C87.2746 86.6054 87.3469 86.6748 87.4156 86.7551C87.4843 86.8353 87.5523 86.9263 87.6196 87.0277C87.6868 87.1295 87.762 87.2475 87.8451 87.382L89 89.2336ZM85.3058 83.7266V85.9602H86.2852C86.4657 85.9602 86.6323 85.9328 86.7855 85.8785C86.9387 85.8242 87.0711 85.7462 87.1829 85.6444C87.2948 85.5429 87.3818 85.4181 87.4451 85.2707C87.5081 85.1232 87.5397 84.9577 87.5397 84.7747C87.5397 84.4452 87.4329 84.1884 87.2196 84.0035C87.0063 83.8186 86.6977 83.7266 86.2938 83.7266H85.3058Z" fill="black"/>
</svg>
