<svg width="104" height="104" viewBox="0 0 104 104" fill="none" xmlns="http://www.w3.org/2000/svg">
<g clip-path="url(#clip0_253_3753)">
<path d="M104 0H0V104H104V0Z" fill="#509EE3"/>
<mask id="mask0_253_3753" style="mask-type:luminance" maskUnits="userSpaceOnUse" x="0" y="0" width="104" height="104">
<path d="M104 0H0V104H104V0Z" fill="white"/>
</mask>
<g mask="url(#mask0_253_3753)">
<path d="M92.6245 51.5945C92.6245 74.2559 74.254 92.6248 51.5926 92.6248C28.9312 92.6248 10.5623 74.2542 10.5623 51.5945C10.5623 28.9347 28.9328 10.5625 51.5942 10.5625C74.254 10.5625 92.6245 28.9331 92.6245 51.5945Z" fill="#1C6BB0" fill-opacity="0.45"/>
<path d="M41.5668 35.6881H40.5583C40.4424 35.6881 40.348 35.6583 40.2768 35.6004C40.2056 35.5424 40.1509 35.4679 40.1161 35.3785L39.2153 33.0534H34.8963L33.997 35.3785C33.9656 35.4596 33.9109 35.5308 33.8347 35.5938C33.7586 35.6567 33.6642 35.6881 33.5532 35.6881H32.5447L36.3933 26.0615H37.7165L41.5668 35.6881ZM35.2606 32.116H38.8542L37.3423 28.1995C37.2429 27.9577 37.1468 27.6563 37.0524 27.2936C37.0028 27.4774 36.9547 27.648 36.9051 27.8037C36.8603 27.956 36.8156 28.0902 36.7709 28.2061L35.2606 32.116Z" fill="white"/>
<path d="M44.3242 35.6881H43.0209V26.0615H44.3242V35.6881Z" fill="white"/>
<path d="M53.6842 33.7007C53.7554 33.7007 53.82 33.7305 53.878 33.7885L54.388 34.3466C53.9939 34.8037 53.5153 35.1597 52.9506 35.4147C52.3908 35.6698 51.7152 35.7973 50.9219 35.7973C50.228 35.7973 49.5987 35.678 49.034 35.4412C48.4693 35.1994 47.9891 34.8633 47.5899 34.4344C47.1908 34.0005 46.8828 33.4805 46.6626 32.876C46.4423 32.2716 46.333 31.6058 46.333 30.8805C46.333 30.1551 46.4489 29.4894 46.6824 28.8849C46.9193 28.2805 47.2521 27.7605 47.6761 27.3266C48.1017 26.8927 48.6101 26.5565 49.2013 26.3197C49.7975 26.0779 50.4533 25.957 51.1687 25.957C51.8758 25.957 52.4852 26.0663 52.9953 26.2866C53.5103 26.5068 53.9674 26.8033 54.3649 27.1792L53.9409 27.777C53.9094 27.8217 53.873 27.8598 53.8333 27.8913C53.7935 27.9178 53.7356 27.931 53.6577 27.931C53.5998 27.931 53.5368 27.9112 53.4706 27.8714C53.4077 27.8267 53.3315 27.7737 53.2421 27.7108C53.1526 27.6479 53.0466 27.58 52.9257 27.5088C52.8049 27.4375 52.6608 27.3696 52.4952 27.3067C52.3296 27.2438 52.1375 27.1924 51.9172 27.1527C51.697 27.108 51.4452 27.0848 51.1587 27.0848C50.6437 27.0848 50.1717 27.1742 49.7412 27.3531C49.3156 27.5286 48.9479 27.7787 48.6399 28.1049C48.3302 28.4312 48.0884 28.8303 47.9145 29.3006C47.744 29.7709 47.6595 30.2975 47.6595 30.8788C47.6595 31.4783 47.7456 32.0149 47.9145 32.4835C48.0884 32.9538 48.3236 33.353 48.62 33.6792C48.9198 34.0021 49.2742 34.2472 49.6815 34.4178C50.0889 34.5884 50.5278 34.6728 50.9981 34.6728C51.2846 34.6728 51.5413 34.6579 51.7698 34.6265C51.9984 34.59 52.2087 34.537 52.4008 34.4658C52.5979 34.3946 52.7784 34.3052 52.944 34.1975C53.1145 34.0849 53.2851 33.9541 53.454 33.8017C53.5385 33.7338 53.6114 33.7007 53.6842 33.7007Z" fill="white"/>
<path d="M57.5262 32.0879V35.6881H56.2295V26.0615H59.0713C59.6807 26.0615 60.209 26.1327 60.6561 26.2768C61.1082 26.4159 61.4825 26.6146 61.7773 26.8746C62.0737 27.1346 62.2923 27.4476 62.4364 27.8153C62.5838 28.1829 62.6583 28.592 62.6583 29.0441C62.6583 29.4912 62.5804 29.9019 62.4231 30.2729C62.2658 30.6438 62.0356 30.9651 61.7309 31.2334C61.4311 31.5017 61.0569 31.712 60.6097 31.8643C60.1626 32.0117 59.6492 32.0862 59.0713 32.0862H57.5262V32.0879ZM57.5262 31.0545H59.0713C59.4422 31.0545 59.7701 31.0048 60.0517 30.9071C60.3382 30.8078 60.5783 30.672 60.7704 30.4981C60.9625 30.3192 61.1082 30.1056 61.2076 29.8605C61.3053 29.6138 61.355 29.3438 61.355 29.0474C61.355 28.433 61.1645 27.9544 60.7836 27.6099C60.4077 27.2655 59.8364 27.0932 59.0713 27.0932H57.5262V31.0545Z" fill="white"/>
<path d="M71.298 35.6881H70.2894C70.1735 35.6881 70.0791 35.6583 70.0079 35.6004C69.9367 35.5424 69.8821 35.4679 69.8473 35.3785L68.948 33.0534H64.6291L63.7282 35.3785C63.6967 35.4596 63.6437 35.5308 63.5675 35.5938C63.4914 35.6567 63.397 35.6881 63.286 35.6881H62.2775L66.1261 26.0615H67.4493L71.298 35.6881ZM64.9901 32.116H68.5837L67.0717 28.1995C66.974 27.9577 66.878 27.6563 66.7836 27.2936C66.7339 27.4774 66.6859 27.648 66.6362 27.8037C66.5915 27.956 66.5468 28.0902 66.5021 28.2061L64.9901 32.116Z" fill="white"/>
<path d="M31.1238 50.1073C31.0128 50.2845 30.8952 50.417 30.7694 50.5047C30.6518 50.5925 30.4961 50.6372 30.3057 50.6372C30.1368 50.6372 29.9513 50.5859 29.7526 50.4815C29.5605 50.3706 29.3402 50.2497 29.0902 50.1172C28.8467 49.9847 28.5668 49.8671 28.2505 49.7628C27.9342 49.6519 27.5732 49.5972 27.1675 49.5972C26.467 49.5972 25.9437 49.7479 25.5992 50.051C25.2597 50.3457 25.0908 50.7482 25.0908 51.2549C25.0908 51.5795 25.1935 51.8478 25.4005 52.0614C25.6075 52.275 25.8758 52.4589 26.207 52.6145C26.5465 52.7685 26.929 52.9126 27.3563 53.0451C27.7902 53.171 28.2323 53.3134 28.6828 53.4757C29.1316 53.6297 29.5704 53.8152 29.9977 54.0288C30.4332 54.2424 30.8158 54.514 31.147 54.8469C31.4865 55.1781 31.758 55.5838 31.9651 56.0624C32.1721 56.5344 32.2747 57.1057 32.2747 57.7764C32.2747 58.52 32.1456 59.2172 31.8872 59.8647C31.6289 60.5122 31.253 61.0803 30.7594 61.5671C30.2726 62.0457 29.6698 62.425 28.9477 62.7049C28.2323 62.9781 27.4192 63.1139 26.5051 63.1139C26.0033 63.1139 25.4916 63.0626 24.9682 62.9599C24.4532 62.8572 23.9514 62.7131 23.4662 62.5293C22.9793 62.3372 22.5223 62.1136 22.0966 61.8553C21.6694 61.597 21.2968 61.3105 20.9805 60.9941L22.0851 59.2487C22.1728 59.1228 22.2871 59.0201 22.4279 58.939C22.5752 58.8512 22.7342 58.8065 22.9031 58.8065C23.1251 58.8065 23.3453 58.8761 23.5656 59.0168C23.7941 59.1576 24.0475 59.3116 24.3273 59.4805C24.6155 59.6494 24.9434 59.8051 25.311 59.9442C25.6787 60.085 26.1142 60.1545 26.6144 60.1545C27.2917 60.1545 27.8183 60.0071 28.1942 59.7124C28.5701 59.4093 28.7573 58.934 28.7573 58.2865C28.7573 57.9106 28.6546 57.6042 28.4476 57.3691C28.2406 57.1339 27.969 56.9385 27.6295 56.7828C27.2983 56.6271 26.9191 56.4913 26.4918 56.3738C26.0645 56.2562 25.6257 56.127 25.1769 55.9863C24.7281 55.8389 24.2893 55.6617 23.862 55.4563C23.4347 55.2427 23.0522 54.9661 22.7127 54.6266C22.3815 54.2805 22.1116 53.8533 21.9062 53.3448C21.6992 52.8298 21.5965 52.1956 21.5965 51.4437C21.5965 50.8392 21.7174 50.2497 21.9609 49.675C22.2043 49.1004 22.562 48.5887 23.0323 48.1382C23.5043 47.6894 24.0823 47.3317 24.7679 47.0668C25.4535 46.7935 26.2384 46.6577 27.1211 46.6577C27.6146 46.6577 28.0932 46.6975 28.5569 46.7786C29.0289 46.8515 29.4744 46.9657 29.895 47.1214C30.3156 47.2688 30.7048 47.4493 31.0658 47.6629C31.4335 47.8699 31.7614 48.1051 32.0495 48.3701L31.1238 50.1073Z" fill="white"/>
<path d="M50.2694 54.882C50.2694 56.0462 50.0673 57.1292 49.6616 58.1311C49.2641 59.133 48.7011 60.0058 47.9708 60.751C47.2421 61.4879 46.3611 62.0659 45.3294 62.4865C44.3059 62.9072 43.1666 63.1158 41.9146 63.1158C40.6626 63.1158 39.5199 62.9055 38.4882 62.4865C37.4565 62.0659 36.5722 61.4879 35.8352 60.751C35.1066 60.0074 34.5385 59.133 34.1328 58.1311C33.7353 57.1292 33.5366 56.0462 33.5366 54.882C33.5366 53.7178 33.7353 52.6347 34.1328 51.6328C34.5385 50.6309 35.1049 49.7615 35.8352 49.0245C36.5722 48.2876 37.4565 47.7096 38.4882 47.289C39.5199 46.8683 40.6626 46.6597 41.9146 46.6597C43.1666 46.6597 44.3059 46.8733 45.3294 47.3006C46.3611 47.7212 47.2421 48.2992 47.9708 49.0361C48.6994 49.773 49.2641 50.6425 49.6616 51.6444C50.0673 52.6463 50.2694 53.726 50.2694 54.882ZM46.4455 54.882C46.4455 54.0871 46.3429 53.3716 46.1359 52.7374C45.9289 52.0965 45.6308 51.555 45.2399 51.1128C44.8574 50.6706 44.3854 50.3311 43.8257 50.096C43.2659 49.8608 42.6283 49.7416 41.9146 49.7416C41.1925 49.7416 40.5483 49.8592 39.9803 50.096C39.4206 50.3311 38.9453 50.6706 38.5545 51.1128C38.1719 51.555 37.8771 52.0965 37.6701 52.7374C37.4631 53.3716 37.3604 54.0854 37.3604 54.882C37.3604 55.6851 37.4631 56.4072 37.6701 57.0481C37.8771 57.6807 38.1703 58.2189 38.5545 58.6611C38.9453 59.1032 39.4206 59.4427 39.9803 59.6779C40.5467 59.9064 41.1925 60.0207 41.9146 60.0207C42.6283 60.0207 43.2659 59.9064 43.8257 59.6779C44.3854 59.4427 44.8574 59.1032 45.2399 58.6611C45.6308 58.2189 45.9289 57.6807 46.1359 57.0481C46.3429 56.4072 46.4455 55.6851 46.4455 54.882Z" fill="white"/>
<path d="M63.3207 58.7717C63.4085 58.7717 63.4979 58.7899 63.5857 58.8264C63.6735 58.8562 63.7579 58.9108 63.8391 58.992L65.3196 60.5503C64.6721 61.3982 63.8573 62.0391 62.8769 62.473C61.9048 62.9003 60.7505 63.1139 59.4174 63.1139C58.1936 63.1139 57.0973 62.9069 56.1235 62.4945C55.158 62.0739 54.3366 61.4992 53.6593 60.7706C52.9886 60.0336 52.4736 59.1642 52.1126 58.1623C51.7516 57.1521 51.571 56.0591 51.571 54.88C51.571 53.6794 51.7665 52.5781 52.1573 51.5762C52.5481 50.5677 53.0963 49.6982 53.8034 48.9679C54.5105 48.2392 55.3584 47.6712 56.3454 47.2655C57.3324 46.8598 58.4188 46.6577 59.6062 46.6577C60.2107 46.6577 60.7787 46.7124 61.3086 46.8233C61.8468 46.926 62.347 47.0734 62.8107 47.2655C63.2744 47.4493 63.7016 47.6745 64.0924 47.9395C64.4833 48.2045 64.8294 48.4926 65.1308 48.8023L63.8705 50.4931C63.7894 50.5958 63.6933 50.6919 63.5824 50.7813C63.4714 50.8624 63.3174 50.9022 63.1187 50.9022C62.9862 50.9022 62.8603 50.8724 62.7428 50.8144C62.6252 50.7548 62.4993 50.6852 62.3668 50.6041C62.2344 50.5163 62.087 50.4236 61.9247 50.3275C61.7707 50.2248 61.5819 50.1321 61.3616 50.051C61.148 49.9632 60.8946 49.8887 60.5998 49.8307C60.3117 49.7711 59.9738 49.7429 59.583 49.7429C58.9637 49.7429 58.3973 49.8572 57.8806 50.0857C57.3722 50.3143 56.93 50.6488 56.5541 51.091C56.1848 51.5265 55.8983 52.0631 55.6913 52.704C55.4926 53.3382 55.3932 54.0636 55.3932 54.8817C55.3932 55.7064 55.5042 56.44 55.7244 57.0809C55.953 57.7218 56.2593 58.2633 56.6419 58.7055C57.0327 59.141 57.4848 59.4722 58.0015 59.7008C58.5165 59.9293 59.0696 60.0436 59.6592 60.0436C59.9987 60.0436 60.3067 60.0287 60.5882 59.9989C60.8681 59.9624 61.1298 59.9078 61.3732 59.8333C61.6167 59.7521 61.8452 59.6494 62.0588 59.5236C62.2724 59.3911 62.4894 59.2255 62.7113 59.0268C62.7991 58.9539 62.8951 58.8943 62.9995 58.8496C63.1038 58.7982 63.2098 58.7717 63.3207 58.7717Z" fill="white"/>
<path d="M81.2939 59.8434C81.6631 59.8434 81.953 59.9461 82.1666 60.1531C82.3802 60.3518 82.4862 60.6168 82.4862 60.948V62.9369H71.1704V61.8323C71.1704 61.6187 71.2151 61.3901 71.3029 61.1467C71.3907 60.9033 71.5463 60.683 71.7666 60.4843L76.4085 55.8092C76.806 55.4118 77.1521 55.0326 77.4468 54.6715C77.7416 54.3105 77.9851 53.9561 78.1755 53.61C78.3676 53.2556 78.51 52.9062 78.6061 52.5601C78.7021 52.2057 78.7502 51.8347 78.7502 51.4439C78.7502 50.803 78.5961 50.3128 78.2865 49.9733C77.9851 49.6272 77.5197 49.4533 76.8937 49.4533C76.3853 49.4533 75.9547 49.5891 75.6003 49.8624C75.2542 50.1273 75.0141 50.4585 74.8816 50.8577C74.7276 51.2634 74.5239 51.5317 74.2738 51.6641C74.0238 51.7966 73.6661 51.8264 73.2024 51.7519L71.3907 51.4306C71.5082 50.6275 71.7335 49.9269 72.0647 49.3308C72.4042 48.7346 72.8198 48.2361 73.3133 47.8387C73.8135 47.4412 74.3848 47.1464 75.0257 46.9543C75.6666 46.7556 76.3555 46.6562 77.0924 46.6562C77.889 46.6562 78.6028 46.7738 79.237 47.0106C79.8779 47.2392 80.4228 47.5605 80.8732 47.9728C81.322 48.3852 81.6648 48.8787 81.9016 49.4533C82.1451 50.0197 82.266 50.6473 82.266 51.3313C82.266 51.9208 82.1815 52.4657 82.0126 52.9675C81.8503 53.4676 81.6251 53.9478 81.3386 54.4049C81.0504 54.8537 80.7159 55.2926 80.3333 55.7198C79.9574 56.1404 79.5567 56.5677 79.1294 57.0016L75.9796 60.2309C76.3853 60.105 76.7861 60.009 77.1835 59.9427C77.581 59.8765 77.9503 59.8434 78.2881 59.8434H81.2939Z" fill="white"/>
<path d="M39.154 70.8213V72.3399H36.8306V79.0767H34.9162V72.3399H32.5911V70.8213H39.154Z" fill="white"/>
<path d="M44.6222 75.9385V79.0784H42.7078V75.9385L39.7153 70.8213H41.4045C41.5701 70.8213 41.7026 70.861 41.8003 70.9405C41.898 71.0167 41.9775 71.1144 42.0388 71.2353L43.2063 73.6382C43.3007 73.8303 43.3868 74.0075 43.4663 74.1715C43.5458 74.3338 43.6153 74.4944 43.6766 74.6534C43.7329 74.4911 43.8008 74.3288 43.8803 74.1665C43.9598 74.0042 44.0442 73.8287 44.1353 73.6399L45.2913 71.237C45.3144 71.1873 45.3442 71.1393 45.3823 71.0896C45.4237 71.0399 45.4684 70.9968 45.5181 70.9587C45.5711 70.9173 45.6291 70.8859 45.6937 70.8627C45.7616 70.8362 45.8361 70.8229 45.9156 70.8229H47.6163L44.6222 75.9385Z" fill="white"/>
<path d="M50.6602 76.3177V79.0767H48.7458V70.8213H51.6588C52.2401 70.8213 52.7386 70.8908 53.1543 71.0316C53.5732 71.1674 53.9177 71.3562 54.186 71.598C54.4576 71.8398 54.6579 72.1246 54.7871 72.4542C54.9146 72.7821 54.9792 73.1381 54.9792 73.519C54.9792 73.9314 54.913 74.3089 54.7805 74.6517C54.648 74.9962 54.446 75.291 54.1744 75.5361C53.9028 75.7812 53.5567 75.9749 53.1377 76.114C52.722 76.2498 52.2285 76.3177 51.6588 76.3177H50.6602ZM50.6602 74.8736H51.6572C52.1557 74.8736 52.515 74.7544 52.7336 74.5159C52.9522 74.2775 53.0615 73.9463 53.0615 73.519C53.0615 73.3302 53.0334 73.158 52.9771 73.004C52.9208 72.8483 52.833 72.7175 52.7171 72.6082C52.6044 72.4956 52.4587 72.4078 52.2799 72.3482C52.106 72.2869 51.899 72.2571 51.6572 72.2571H50.6602V74.8736Z" fill="white"/>
<path d="M61.8535 70.8213V72.2952H58.4652V74.2212H61.0602V75.6371H58.4652V77.6028H61.8535V79.0767H56.5392V70.8213H61.8535Z" fill="white"/>
<path fill-rule="evenodd" clip-rule="evenodd" d="M77.1372 42.0191H26.5945V41.418H77.1388V42.0191H77.1372Z" fill="white"/>
<path d="M71.5281 77.5048C71.7152 77.5048 71.8626 77.5578 71.9703 77.6621C72.0779 77.7632 72.1326 77.8973 72.1326 78.0662V79.0747H66.3927V78.515C66.3927 78.4074 66.4159 78.2914 66.4606 78.1672C66.5053 78.043 66.5831 77.9321 66.6958 77.8311L69.0507 75.4596C69.2527 75.2576 69.4282 75.0655 69.5773 74.8816C69.7263 74.6978 69.8505 74.519 69.9466 74.3434C70.0443 74.1646 70.1172 73.9874 70.1652 73.8118C70.2132 73.633 70.2381 73.4442 70.2381 73.2454C70.2381 72.9209 70.1602 72.6725 70.0029 72.5002C69.8505 72.3247 69.6137 72.2369 69.2974 72.2369C69.0391 72.2369 68.8205 72.3065 68.6416 72.4439C68.4661 72.5781 68.3452 72.747 68.2773 72.949C68.1995 73.1544 68.0968 73.2902 67.9693 73.3581C67.8417 73.426 67.6612 73.4409 67.4261 73.4028L66.507 73.2405C66.5666 72.8331 66.6809 72.4787 66.8481 72.1756C67.0203 71.8726 67.2307 71.6209 67.4824 71.4188C67.7358 71.2168 68.0256 71.0677 68.3518 70.97C68.6764 70.869 69.0258 70.8193 69.4001 70.8193C69.8042 70.8193 70.1668 70.879 70.4881 70.9982C70.8127 71.1141 71.0893 71.2764 71.3178 71.4851C71.5463 71.6937 71.7202 71.9455 71.8394 72.2369C71.962 72.5251 72.0249 72.843 72.0249 73.1891C72.0249 73.4872 71.9819 73.7638 71.8958 74.0188C71.813 74.2722 71.7003 74.5156 71.5546 74.7475C71.4089 74.976 71.2383 75.1979 71.0445 75.4149C70.8541 75.6285 70.6504 75.8438 70.4335 76.0657L68.8354 77.7019C69.0407 77.639 69.2444 77.5893 69.4465 77.5561C69.6485 77.523 69.8356 77.5065 70.0062 77.5065H71.5281V77.5048Z" fill="white"/>
</g>
</g>
<rect x="0.5" y="0.5" width="103" height="103" rx="23.5" stroke="#3987CC"/>
<defs>
<clipPath id="clip0_253_3753">
<rect width="104" height="104" rx="24" fill="white"/>
</clipPath>
</defs>
</svg>
